<?xml version="1.0" encoding="UTF-8" standalone="no"?>
<svg
   xmlns:dc="http://purl.org/dc/elements/1.1/"
   xmlns:cc="http://creativecommons.org/ns#"
   xmlns:rdf="http://www.w3.org/1999/02/22-rdf-syntax-ns#"
   xmlns:svg="http://www.w3.org/2000/svg"
   xmlns="http://www.w3.org/2000/svg"
   xmlns:sodipodi="http://sodipodi.sourceforge.net/DTD/sodipodi-0.dtd"
   xmlns:inkscape="http://www.inkscape.org/namespaces/inkscape"
   version="1.1"
   id="Calque_1"
   x="0px"
   y="0px"
   width="252.408"
   height="187.52002"
   viewBox="0 0 252.408 187.52002"
   enable-background="new 0 0 612 792"
   xml:space="preserve"
   sodipodi:docname="FACiL.svg"
   inkscape:version="1.0.2 (e86c8708, 2021-01-15)"><metadata
   id="metadata364"><rdf:RDF><cc:Work
       rdf:about=""><dc:format>image/svg+xml</dc:format><dc:type
         rdf:resource="http://purl.org/dc/dcmitype/StillImage" /><dc:title></dc:title></cc:Work></rdf:RDF></metadata><defs
   id="defs362"><clipPath
     clipPathUnits="userSpaceOnUse"
     id="clipPath368"><rect
       style="fill:#0000ff;fill-rule:evenodd"
       id="rect370"
       width="309.57144"
       height="252.21428"
       x="156.35715"
       y="165" /></clipPath><clipPath
     clipPathUnits="userSpaceOnUse"
     id="clipPath372"><rect
       style="fill:#0000ff;fill-rule:evenodd"
       id="rect374"
       width="309.57144"
       height="252.21428"
       x="156.35715"
       y="165" /></clipPath><clipPath
     clipPathUnits="userSpaceOnUse"
     id="clipPath376"><rect
       style="fill:#0000ff;fill-rule:evenodd"
       id="rect378"
       width="309.57144"
       height="252.21428"
       x="156.35715"
       y="165" /></clipPath><clipPath
     clipPathUnits="userSpaceOnUse"
     id="clipPath380"><rect
       style="fill:#0000ff;fill-rule:evenodd"
       id="rect382"
       width="309.57144"
       height="252.21428"
       x="156.35715"
       y="165" /></clipPath><clipPath
     clipPathUnits="userSpaceOnUse"
     id="clipPath384"><rect
       style="fill:#0000ff;fill-rule:evenodd"
       id="rect386"
       width="309.57144"
       height="252.21428"
       x="156.35715"
       y="165" /></clipPath><clipPath
     clipPathUnits="userSpaceOnUse"
     id="clipPath388"><rect
       style="fill:#0000ff;fill-rule:evenodd"
       id="rect390"
       width="309.57144"
       height="252.21428"
       x="156.35715"
       y="165" /></clipPath><clipPath
     clipPathUnits="userSpaceOnUse"
     id="clipPath392"><rect
       style="fill:#0000ff;fill-rule:evenodd"
       id="rect394"
       width="309.57144"
       height="252.21428"
       x="156.35715"
       y="165" /></clipPath></defs><sodipodi:namedview
   pagecolor="#ffffff"
   bordercolor="#666666"
   borderopacity="1"
   objecttolerance="10"
   gridtolerance="10"
   guidetolerance="10"
   inkscape:pageopacity="0"
   inkscape:pageshadow="2"
   inkscape:window-width="1694"
   inkscape:window-height="1117"
   id="namedview360"
   showgrid="false"
   fit-margin-top="0"
   fit-margin-left="0"
   fit-margin-right="0"
   fit-margin-bottom="0"
   inkscape:zoom="1.2727273"
   inkscape:cx="123.167"
   inkscape:cy="38.111143"
   inkscape:window-x="0"
   inkscape:window-y="32"
   inkscape:window-maximized="0"
   inkscape:current-layer="Calque_1" />
<g
   id="g235"
   clip-path="url(#clipPath392)"
   transform="translate(-182.833,-200.746)">
	<path
   fill="#e42538"
   d="m 345.794,226.275 c 0,0 0.721,9.994 0,0 -0.719,-9.995 -9.867,-10.55 -9.867,-10.55 0,0 8.596,0.406 0,0 -8.592,-0.402 -11.004,7.182 -11.004,7.182 l -1.475,-0.653 -10.098,-7.102 11.809,3.198 -7.123,-10.28 10.021,7.211 -3.303,-12.211 7.025,10.352 0.922,-12.676 3.184,12.248 5.037,-11.607 -1.053,12.663 8.543,-9.143 -5.148,11.558 11.016,-5.574 -8.627,9.049 12.16,-1.33 -11.066,5.458 11.838,3.067 -12.174,1.204 10.096,7.1 -10.273,-2.781 -1.541,-0.416 -0.482,-0.1 c -0.001,0.001 1.796,-3.174 1.583,-5.867"
   id="path233" />
</g>
<g
   id="g243"
   clip-path="url(#clipPath388)"
   transform="translate(-182.833,-200.746)">
	<path
   fill="#239ad2"
   d="m 190.159,245.486 h 36.223 v 11.017 h -22.826 v 13.573 h 21.328 v 10.929 h -21.328 v 23.884 H 190.16 v -59.403 z"
   id="path237" />
	<path
   fill="#239ad2"
   d="m 244.45,289.642 -4.23,15.248 h -13.838 l 18.068,-59.403 h 17.627 l 18.508,59.403 h -14.542 l -4.583,-15.248 z m 15.071,-10.047 -3.701,-12.604 c -1.058,-3.525 -2.115,-7.932 -2.996,-11.458 h -0.177 c -0.882,3.525 -1.763,8.02 -2.732,11.458 l -3.525,12.604 z"
   id="path239" />
	<path
   fill="#239ad2"
   d="m 329.763,303.303 c -2.38,1.146 -8.021,2.556 -15.159,2.556 -20.535,0 -31.111,-12.867 -31.111,-29.789 0,-20.271 14.454,-31.464 32.434,-31.464 6.962,0 12.251,1.322 14.63,2.644 l -2.82,10.576 c -2.644,-1.146 -6.434,-2.203 -11.281,-2.203 -10.576,0 -18.86,6.434 -18.86,19.654 0,11.898 7.051,19.39 18.948,19.39 4.143,0 8.55,-0.793 11.281,-1.939 z"
   id="path241" />
</g>
<g
   id="g249"
   clip-path="url(#clipPath384)"
   transform="translate(-182.833,-200.746)">
	<path
   fill="#239ad2"
   d="m 378.309,246.937 h 13.396 v 48.122 h 23.621 v 11.281 h -37.018 v -59.403 z"
   id="path245" />
	<path
   fill="#239ad2"
   d="M 420.787,316.658 V 315.3 c 1.83,-0.644 3.328,-1.589 4.494,-2.836 1.328,-1.469 1.992,-3.098 1.992,-4.888 l -0.271,-0.996 -0.422,-0.241 -2.596,0.875 c -2.131,0 -3.197,-1.116 -3.197,-3.349 0,-1.006 0.393,-1.86 1.176,-2.564 0.785,-0.684 1.689,-1.026 2.715,-1.026 1.51,0 2.766,0.704 3.771,2.112 0.865,1.267 1.297,2.685 1.297,4.254 0,4.687 -2.986,8.026 -8.959,10.017 z"
   id="path247" />
</g>
<g
   id="g345"
   clip-path="url(#clipPath380)"
   transform="translate(-182.833,-200.746)">
	<path
   d="m 199.129,325.623 c 0,0.641 -0.106,1.22 -0.317,1.735 -0.211,0.515 -0.514,0.955 -0.907,1.318 -0.393,0.364 -0.876,0.645 -1.448,0.843 -0.572,0.198 -1.254,0.297 -2.047,0.297 h -1.458 v 4.621 c 0,0.053 -0.015,0.099 -0.045,0.139 -0.03,0.04 -0.076,0.071 -0.139,0.094 -0.063,0.023 -0.149,0.043 -0.258,0.06 -0.109,0.017 -0.246,0.025 -0.412,0.025 -0.165,0 -0.302,-0.008 -0.411,-0.025 -0.109,-0.017 -0.197,-0.036 -0.263,-0.06 -0.066,-0.023 -0.112,-0.054 -0.139,-0.094 -0.026,-0.04 -0.04,-0.085 -0.04,-0.139 v -11.839 c 0,-0.264 0.069,-0.453 0.208,-0.565 0.139,-0.112 0.294,-0.169 0.466,-0.169 h 2.747 c 0.277,0 0.543,0.012 0.798,0.035 0.254,0.023 0.555,0.073 0.902,0.149 0.347,0.076 0.7,0.218 1.061,0.426 0.36,0.208 0.666,0.465 0.917,0.769 0.251,0.304 0.444,0.656 0.58,1.056 0.138,0.4 0.205,0.841 0.205,1.324 z m -1.795,0.138 c 0,-0.522 -0.097,-0.958 -0.292,-1.309 -0.195,-0.351 -0.436,-0.611 -0.724,-0.784 -0.288,-0.172 -0.585,-0.281 -0.893,-0.327 -0.307,-0.046 -0.606,-0.069 -0.897,-0.069 h -1.577 v 5.146 h 1.537 c 0.516,0 0.944,-0.066 1.284,-0.199 0.34,-0.132 0.626,-0.315 0.858,-0.55 0.231,-0.234 0.406,-0.516 0.525,-0.843 0.119,-0.327 0.179,-0.681 0.179,-1.065 z"
   id="path251" />
	<path
   d="m 209.441,329.886 c 0,0.727 -0.096,1.396 -0.288,2.008 -0.192,0.612 -0.478,1.139 -0.857,1.582 -0.38,0.443 -0.856,0.789 -1.428,1.036 -0.572,0.248 -1.234,0.372 -1.988,0.372 -0.734,0 -1.374,-0.109 -1.919,-0.327 -0.545,-0.218 -1,-0.536 -1.363,-0.952 -0.363,-0.416 -0.635,-0.922 -0.813,-1.517 -0.179,-0.595 -0.268,-1.269 -0.268,-2.022 0,-0.728 0.094,-1.396 0.282,-2.008 0.188,-0.611 0.473,-1.139 0.853,-1.582 0.38,-0.443 0.854,-0.787 1.423,-1.031 0.568,-0.244 1.233,-0.367 1.993,-0.367 0.733,0 1.373,0.109 1.918,0.327 0.545,0.218 1,0.536 1.363,0.952 0.364,0.417 0.636,0.922 0.818,1.517 0.184,0.594 0.274,1.265 0.274,2.012 z m -1.695,0.109 c 0,-0.482 -0.045,-0.938 -0.135,-1.368 -0.09,-0.43 -0.239,-0.807 -0.445,-1.13 -0.207,-0.324 -0.487,-0.58 -0.84,-0.769 -0.353,-0.189 -0.794,-0.283 -1.321,-0.283 -0.487,0 -0.906,0.086 -1.256,0.258 -0.35,0.172 -0.639,0.415 -0.865,0.729 -0.227,0.314 -0.396,0.686 -0.505,1.116 -0.109,0.43 -0.165,0.899 -0.165,1.408 0,0.489 0.045,0.949 0.135,1.378 0.09,0.43 0.24,0.805 0.45,1.125 0.21,0.32 0.492,0.575 0.845,0.763 0.354,0.188 0.794,0.283 1.321,0.283 0.48,0 0.897,-0.086 1.25,-0.258 0.353,-0.172 0.644,-0.413 0.871,-0.724 0.227,-0.311 0.394,-0.681 0.5,-1.111 0.106,-0.429 0.16,-0.901 0.16,-1.417 z"
   id="path253" />
	<path
   d="m 219.496,334.447 c 0,0.053 -0.012,0.098 -0.035,0.134 -0.023,0.037 -0.064,0.068 -0.124,0.094 -0.06,0.026 -0.137,0.046 -0.233,0.06 -0.096,0.013 -0.213,0.02 -0.352,0.02 -0.152,0 -0.276,-0.007 -0.372,-0.02 -0.096,-0.013 -0.172,-0.033 -0.228,-0.06 -0.056,-0.027 -0.094,-0.058 -0.114,-0.094 -0.02,-0.036 -0.03,-0.081 -0.03,-0.134 v -1.18 c -0.509,0.562 -1.012,0.972 -1.507,1.229 -0.495,0.257 -0.998,0.387 -1.507,0.387 -0.595,0 -1.096,-0.099 -1.502,-0.297 -0.407,-0.199 -0.735,-0.468 -0.987,-0.808 -0.251,-0.341 -0.431,-0.737 -0.54,-1.19 -0.109,-0.453 -0.164,-1.003 -0.164,-1.651 v -5.414 c 0,-0.053 0.012,-0.098 0.035,-0.134 0.023,-0.037 0.067,-0.07 0.134,-0.099 0.066,-0.03 0.152,-0.05 0.258,-0.06 0.105,-0.01 0.238,-0.015 0.396,-0.015 0.158,0 0.291,0.005 0.396,0.015 0.106,0.01 0.19,0.03 0.253,0.06 0.063,0.029 0.107,0.063 0.134,0.099 0.026,0.036 0.04,0.081 0.04,0.134 v 5.196 c 0,0.522 0.038,0.94 0.114,1.254 0.076,0.314 0.192,0.582 0.347,0.803 0.155,0.221 0.352,0.393 0.59,0.516 0.238,0.122 0.516,0.183 0.833,0.183 0.41,0 0.818,-0.145 1.225,-0.436 0.406,-0.291 0.838,-0.717 1.294,-1.279 v -6.237 c 0,-0.053 0.011,-0.098 0.035,-0.134 0.023,-0.037 0.068,-0.07 0.134,-0.099 0.066,-0.03 0.15,-0.05 0.253,-0.06 0.103,-0.01 0.236,-0.015 0.401,-0.015 0.159,0 0.291,0.005 0.397,0.015 0.105,0.01 0.188,0.03 0.248,0.06 0.06,0.029 0.104,0.063 0.134,0.099 0.029,0.036 0.044,0.081 0.044,0.134 z"
   id="path255" />
	<path
   d="m 227.736,326.108 c 0,0.146 -0.004,0.268 -0.01,0.367 -0.007,0.099 -0.021,0.177 -0.04,0.233 -0.019,0.056 -0.045,0.099 -0.074,0.129 -0.03,0.029 -0.071,0.044 -0.124,0.044 -0.053,0 -0.117,-0.015 -0.193,-0.044 -0.076,-0.03 -0.162,-0.06 -0.258,-0.089 -0.096,-0.029 -0.203,-0.058 -0.322,-0.084 -0.119,-0.026 -0.248,-0.04 -0.387,-0.04 -0.165,0 -0.327,0.033 -0.486,0.099 -0.158,0.066 -0.325,0.175 -0.5,0.327 -0.176,0.152 -0.359,0.354 -0.551,0.605 -0.191,0.251 -0.403,0.559 -0.635,0.922 v 5.87 c 0,0.053 -0.013,0.098 -0.039,0.134 -0.026,0.037 -0.069,0.068 -0.129,0.094 -0.06,0.026 -0.143,0.046 -0.248,0.06 -0.106,0.013 -0.242,0.02 -0.407,0.02 -0.159,0 -0.291,-0.007 -0.396,-0.02 -0.106,-0.013 -0.19,-0.033 -0.253,-0.06 -0.063,-0.027 -0.106,-0.058 -0.129,-0.094 -0.023,-0.036 -0.035,-0.081 -0.035,-0.134 v -8.924 c 0,-0.053 0.01,-0.098 0.03,-0.134 0.02,-0.037 0.06,-0.07 0.119,-0.099 0.059,-0.03 0.135,-0.05 0.228,-0.06 0.092,-0.01 0.214,-0.015 0.367,-0.015 0.146,0 0.266,0.005 0.362,0.015 0.096,0.01 0.17,0.03 0.223,0.06 0.053,0.029 0.091,0.063 0.114,0.099 0.023,0.036 0.035,0.081 0.035,0.134 v 1.299 c 0.244,-0.357 0.475,-0.648 0.689,-0.873 0.214,-0.225 0.418,-0.401 0.609,-0.53 0.191,-0.129 0.382,-0.218 0.57,-0.268 0.188,-0.049 0.378,-0.074 0.57,-0.074 0.086,0 0.184,0.005 0.292,0.015 0.109,0.01 0.224,0.028 0.343,0.055 0.118,0.026 0.226,0.056 0.322,0.089 0.096,0.033 0.163,0.066 0.203,0.099 0.039,0.033 0.065,0.064 0.079,0.094 0.013,0.03 0.024,0.068 0.034,0.114 0.011,0.046 0.017,0.114 0.021,0.204 0.004,0.088 0.006,0.21 0.006,0.361 z"
   id="path257" />
	<path
   d="m 235.827,334.447 c 0,0.053 -0.014,0.098 -0.04,0.134 -0.026,0.037 -0.069,0.068 -0.129,0.094 -0.06,0.026 -0.142,0.046 -0.248,0.06 -0.105,0.013 -0.241,0.02 -0.406,0.02 -0.158,0 -0.291,-0.007 -0.396,-0.02 -0.105,-0.013 -0.19,-0.033 -0.253,-0.06 -0.063,-0.027 -0.105,-0.058 -0.129,-0.094 -0.023,-0.036 -0.034,-0.081 -0.034,-0.134 V 321.2 c 0,-0.053 0.011,-0.099 0.034,-0.139 0.023,-0.04 0.066,-0.073 0.129,-0.1 0.063,-0.026 0.147,-0.046 0.253,-0.059 0.106,-0.013 0.238,-0.02 0.396,-0.02 0.165,0 0.301,0.007 0.406,0.02 0.106,0.013 0.188,0.033 0.248,0.059 0.06,0.027 0.103,0.06 0.129,0.1 0.026,0.04 0.04,0.086 0.04,0.139 z"
   id="path259" />
	<path
   d="m 241.013,321.626 c 0,0.205 -0.01,0.392 -0.029,0.56 -0.021,0.169 -0.054,0.331 -0.1,0.486 -0.046,0.156 -0.107,0.308 -0.184,0.457 -0.076,0.148 -0.17,0.302 -0.282,0.461 l -1.358,2.042 c -0.033,0.046 -0.071,0.089 -0.114,0.129 -0.043,0.04 -0.096,0.071 -0.158,0.094 -0.063,0.023 -0.136,0.04 -0.219,0.05 -0.083,0.01 -0.187,0.015 -0.313,0.015 -0.112,0 -0.206,-0.005 -0.282,-0.015 -0.076,-0.01 -0.131,-0.026 -0.164,-0.05 -0.033,-0.023 -0.051,-0.055 -0.054,-0.094 -0.004,-0.04 0.008,-0.089 0.034,-0.148 l 1.318,-2.727 v -1.259 c 0,-0.172 0.019,-0.311 0.055,-0.417 0.036,-0.105 0.095,-0.188 0.174,-0.248 0.079,-0.059 0.179,-0.099 0.298,-0.119 0.118,-0.02 0.264,-0.03 0.436,-0.03 0.166,0 0.308,0.01 0.427,0.03 0.119,0.02 0.217,0.06 0.293,0.119 0.075,0.06 0.132,0.143 0.168,0.248 0.035,0.106 0.054,0.245 0.054,0.416 z"
   id="path261" />
	<path
   d="m 249.164,334.458 c 0,0.079 -0.026,0.139 -0.08,0.178 -0.053,0.04 -0.125,0.069 -0.218,0.089 -0.093,0.02 -0.228,0.03 -0.406,0.03 -0.172,0 -0.31,-0.01 -0.412,-0.03 -0.102,-0.02 -0.177,-0.05 -0.223,-0.089 -0.047,-0.04 -0.069,-0.099 -0.069,-0.178 v -0.893 c -0.391,0.417 -0.825,0.74 -1.304,0.972 -0.479,0.231 -0.987,0.347 -1.522,0.347 -0.47,0 -0.895,-0.061 -1.274,-0.184 -0.38,-0.122 -0.704,-0.299 -0.972,-0.53 -0.268,-0.231 -0.476,-0.516 -0.624,-0.853 -0.149,-0.337 -0.224,-0.72 -0.224,-1.15 0,-0.502 0.103,-0.939 0.308,-1.309 0.205,-0.37 0.499,-0.677 0.883,-0.922 0.383,-0.245 0.853,-0.428 1.407,-0.551 0.556,-0.122 1.181,-0.183 1.874,-0.183 h 1.229 v -0.694 c 0,-0.343 -0.036,-0.647 -0.108,-0.912 -0.073,-0.264 -0.19,-0.484 -0.353,-0.659 -0.162,-0.175 -0.371,-0.308 -0.629,-0.397 -0.258,-0.089 -0.575,-0.134 -0.952,-0.134 -0.403,0 -0.766,0.048 -1.086,0.144 -0.32,0.096 -0.602,0.202 -0.843,0.317 -0.241,0.116 -0.443,0.222 -0.604,0.317 -0.162,0.096 -0.283,0.144 -0.362,0.144 -0.053,0 -0.1,-0.013 -0.139,-0.04 -0.04,-0.026 -0.074,-0.066 -0.104,-0.119 -0.029,-0.053 -0.051,-0.121 -0.064,-0.204 -0.013,-0.083 -0.02,-0.173 -0.02,-0.272 0,-0.165 0.012,-0.296 0.034,-0.392 0.023,-0.096 0.08,-0.187 0.169,-0.273 0.089,-0.085 0.243,-0.187 0.461,-0.302 0.219,-0.116 0.47,-0.221 0.754,-0.317 0.284,-0.096 0.595,-0.175 0.932,-0.238 0.338,-0.063 0.678,-0.094 1.021,-0.094 0.642,0 1.187,0.073 1.636,0.218 0.45,0.146 0.813,0.358 1.091,0.64 0.278,0.281 0.479,0.629 0.605,1.046 0.125,0.417 0.188,0.902 0.188,1.458 z m -1.627,-4.076 h -1.397 c -0.45,0 -0.84,0.038 -1.17,0.114 -0.331,0.076 -0.605,0.188 -0.823,0.337 -0.218,0.149 -0.379,0.327 -0.481,0.536 -0.103,0.208 -0.153,0.448 -0.153,0.719 0,0.463 0.147,0.832 0.441,1.105 0.294,0.274 0.705,0.412 1.234,0.412 0.43,0 0.828,-0.109 1.195,-0.327 0.366,-0.218 0.752,-0.552 1.154,-1.001 z"
   id="path263" />
	<path
   d="m 260.379,329.847 c 0,0.78 -0.085,1.481 -0.253,2.102 -0.169,0.622 -0.417,1.148 -0.744,1.582 -0.327,0.434 -0.732,0.767 -1.215,1.001 -0.483,0.234 -1.034,0.352 -1.655,0.352 -0.265,0 -0.51,-0.026 -0.734,-0.08 -0.225,-0.053 -0.444,-0.135 -0.659,-0.248 -0.215,-0.113 -0.428,-0.254 -0.64,-0.427 -0.211,-0.171 -0.436,-0.373 -0.674,-0.604 v 4.462 c 0,0.053 -0.014,0.099 -0.04,0.139 -0.026,0.04 -0.069,0.073 -0.129,0.099 -0.06,0.026 -0.142,0.046 -0.248,0.06 -0.105,0.013 -0.241,0.02 -0.406,0.02 -0.158,0 -0.291,-0.007 -0.396,-0.02 -0.105,-0.013 -0.19,-0.033 -0.253,-0.06 -0.063,-0.027 -0.105,-0.059 -0.129,-0.099 -0.023,-0.04 -0.034,-0.086 -0.034,-0.139 v -12.464 c 0,-0.06 0.01,-0.107 0.029,-0.144 0.02,-0.036 0.06,-0.067 0.119,-0.094 0.06,-0.026 0.135,-0.044 0.228,-0.054 0.093,-0.01 0.205,-0.015 0.338,-0.015 0.139,0 0.252,0.005 0.342,0.015 0.089,0.01 0.163,0.028 0.223,0.054 0.06,0.027 0.101,0.058 0.124,0.094 0.023,0.037 0.035,0.084 0.035,0.144 v 1.2 c 0.271,-0.278 0.532,-0.519 0.783,-0.724 0.251,-0.205 0.504,-0.375 0.759,-0.511 0.254,-0.136 0.516,-0.238 0.783,-0.308 0.267,-0.07 0.55,-0.104 0.848,-0.104 0.647,0 1.2,0.125 1.656,0.377 0.456,0.251 0.827,0.595 1.115,1.031 0.287,0.436 0.497,0.943 0.63,1.522 0.131,0.58 0.197,1.193 0.197,1.841 z m -1.696,0.188 c 0,-0.457 -0.034,-0.897 -0.104,-1.324 -0.069,-0.427 -0.189,-0.805 -0.359,-1.136 -0.169,-0.33 -0.397,-0.595 -0.683,-0.793 -0.286,-0.198 -0.643,-0.297 -1.067,-0.297 -0.213,0 -0.423,0.031 -0.629,0.094 -0.206,0.063 -0.416,0.162 -0.629,0.297 -0.213,0.135 -0.436,0.314 -0.668,0.535 -0.233,0.222 -0.479,0.495 -0.738,0.818 v 3.55 c 0.452,0.549 0.881,0.968 1.287,1.259 0.405,0.291 0.831,0.436 1.276,0.436 0.413,0 0.767,-0.099 1.063,-0.297 0.296,-0.198 0.536,-0.462 0.719,-0.793 0.183,-0.33 0.317,-0.7 0.404,-1.11 0.085,-0.409 0.128,-0.823 0.128,-1.239 z"
   id="path265" />
	<path
   d="m 271.048,329.847 c 0,0.78 -0.085,1.481 -0.253,2.102 -0.169,0.622 -0.417,1.148 -0.744,1.582 -0.327,0.434 -0.732,0.767 -1.215,1.001 -0.483,0.234 -1.034,0.352 -1.655,0.352 -0.265,0 -0.51,-0.026 -0.734,-0.08 -0.225,-0.053 -0.444,-0.135 -0.659,-0.248 -0.215,-0.113 -0.428,-0.254 -0.64,-0.427 -0.211,-0.171 -0.436,-0.373 -0.674,-0.604 v 4.462 c 0,0.053 -0.014,0.099 -0.04,0.139 -0.026,0.04 -0.069,0.073 -0.129,0.099 -0.06,0.026 -0.142,0.046 -0.248,0.06 -0.105,0.013 -0.241,0.02 -0.406,0.02 -0.158,0 -0.291,-0.007 -0.396,-0.02 -0.105,-0.013 -0.19,-0.033 -0.253,-0.06 -0.063,-0.027 -0.105,-0.059 -0.129,-0.099 -0.023,-0.04 -0.034,-0.086 -0.034,-0.139 v -12.464 c 0,-0.06 0.01,-0.107 0.029,-0.144 0.02,-0.036 0.06,-0.067 0.119,-0.094 0.06,-0.026 0.135,-0.044 0.228,-0.054 0.093,-0.01 0.205,-0.015 0.338,-0.015 0.139,0 0.252,0.005 0.342,0.015 0.089,0.01 0.163,0.028 0.223,0.054 0.06,0.027 0.101,0.058 0.124,0.094 0.023,0.037 0.035,0.084 0.035,0.144 v 1.2 c 0.271,-0.278 0.532,-0.519 0.783,-0.724 0.251,-0.205 0.504,-0.375 0.759,-0.511 0.254,-0.136 0.516,-0.238 0.783,-0.308 0.267,-0.07 0.55,-0.104 0.848,-0.104 0.647,0 1.2,0.125 1.656,0.377 0.456,0.251 0.827,0.595 1.115,1.031 0.287,0.436 0.497,0.943 0.63,1.522 0.13,0.58 0.197,1.193 0.197,1.841 z m -1.696,0.188 c 0,-0.457 -0.034,-0.897 -0.104,-1.324 -0.069,-0.427 -0.189,-0.805 -0.359,-1.136 -0.169,-0.33 -0.397,-0.595 -0.683,-0.793 -0.286,-0.198 -0.643,-0.297 -1.067,-0.297 -0.213,0 -0.423,0.031 -0.629,0.094 -0.206,0.063 -0.416,0.162 -0.629,0.297 -0.213,0.135 -0.436,0.314 -0.668,0.535 -0.233,0.222 -0.479,0.495 -0.738,0.818 v 3.55 c 0.452,0.549 0.881,0.968 1.287,1.259 0.405,0.291 0.831,0.436 1.276,0.436 0.413,0 0.767,-0.099 1.063,-0.297 0.296,-0.198 0.536,-0.462 0.719,-0.793 0.183,-0.33 0.317,-0.7 0.404,-1.11 0.085,-0.409 0.128,-0.823 0.128,-1.239 z"
   id="path267" />
	<path
   d="m 278.722,326.108 c 0,0.146 -0.003,0.268 -0.01,0.367 -0.007,0.099 -0.02,0.177 -0.039,0.233 -0.021,0.056 -0.045,0.099 -0.075,0.129 -0.029,0.029 -0.07,0.044 -0.124,0.044 -0.053,0 -0.117,-0.015 -0.193,-0.044 -0.075,-0.03 -0.161,-0.06 -0.258,-0.089 -0.096,-0.03 -0.203,-0.058 -0.322,-0.084 -0.118,-0.026 -0.247,-0.04 -0.387,-0.04 -0.165,0 -0.327,0.033 -0.485,0.099 -0.158,0.066 -0.326,0.175 -0.501,0.327 -0.175,0.152 -0.358,0.354 -0.55,0.605 -0.192,0.251 -0.403,0.559 -0.635,0.922 v 5.87 c 0,0.053 -0.014,0.098 -0.04,0.134 -0.026,0.037 -0.069,0.068 -0.129,0.094 -0.06,0.026 -0.142,0.046 -0.248,0.06 -0.105,0.013 -0.241,0.02 -0.406,0.02 -0.158,0 -0.291,-0.007 -0.396,-0.02 -0.105,-0.013 -0.19,-0.033 -0.253,-0.06 -0.063,-0.027 -0.105,-0.058 -0.129,-0.094 -0.023,-0.036 -0.034,-0.081 -0.034,-0.134 v -8.924 c 0,-0.053 0.01,-0.098 0.029,-0.134 0.02,-0.037 0.06,-0.07 0.119,-0.099 0.06,-0.03 0.135,-0.05 0.228,-0.06 0.093,-0.01 0.215,-0.015 0.367,-0.015 0.146,0 0.266,0.005 0.362,0.015 0.096,0.01 0.17,0.03 0.223,0.06 0.053,0.029 0.091,0.063 0.114,0.099 0.022,0.036 0.034,0.081 0.034,0.134 v 1.299 c 0.245,-0.357 0.475,-0.648 0.689,-0.873 0.214,-0.225 0.418,-0.401 0.61,-0.53 0.191,-0.129 0.381,-0.218 0.569,-0.268 0.188,-0.049 0.379,-0.074 0.57,-0.074 0.086,0 0.184,0.005 0.293,0.015 0.108,0.01 0.223,0.028 0.342,0.055 0.119,0.027 0.227,0.056 0.322,0.089 0.095,0.033 0.164,0.066 0.203,0.099 0.04,0.033 0.066,0.064 0.079,0.094 0.014,0.03 0.025,0.068 0.035,0.114 0.01,0.046 0.017,0.114 0.02,0.204 0.005,0.088 0.006,0.21 0.006,0.361 z"
   id="path269" />
	<path
   d="m 288.559,329.886 c 0,0.727 -0.096,1.396 -0.287,2.008 -0.192,0.612 -0.478,1.139 -0.858,1.582 -0.38,0.443 -0.855,0.789 -1.428,1.036 -0.571,0.248 -1.234,0.372 -1.988,0.372 -0.733,0 -1.373,-0.109 -1.918,-0.327 -0.546,-0.218 -1,-0.536 -1.363,-0.952 -0.364,-0.417 -0.635,-0.922 -0.813,-1.517 -0.179,-0.595 -0.268,-1.269 -0.268,-2.022 0,-0.728 0.094,-1.396 0.282,-2.008 0.188,-0.611 0.473,-1.139 0.853,-1.582 0.381,-0.443 0.854,-0.787 1.423,-1.031 0.569,-0.244 1.233,-0.367 1.993,-0.367 0.734,0 1.374,0.109 1.919,0.327 0.546,0.218 1,0.536 1.363,0.952 0.363,0.416 0.637,0.922 0.818,1.517 0.181,0.594 0.272,1.265 0.272,2.012 z m -1.696,0.109 c 0,-0.482 -0.045,-0.938 -0.136,-1.368 -0.09,-0.43 -0.238,-0.807 -0.444,-1.13 -0.207,-0.324 -0.487,-0.58 -0.841,-0.769 -0.354,-0.189 -0.794,-0.283 -1.32,-0.283 -0.487,0 -0.906,0.086 -1.256,0.258 -0.351,0.172 -0.639,0.415 -0.866,0.729 -0.227,0.314 -0.395,0.686 -0.505,1.116 -0.11,0.43 -0.165,0.899 -0.165,1.408 0,0.489 0.045,0.949 0.135,1.378 0.091,0.43 0.24,0.805 0.45,1.125 0.211,0.321 0.492,0.575 0.846,0.763 0.354,0.188 0.794,0.283 1.321,0.283 0.479,0 0.896,-0.086 1.25,-0.258 0.354,-0.172 0.644,-0.413 0.87,-0.724 0.228,-0.311 0.394,-0.681 0.501,-1.111 0.107,-0.429 0.16,-0.901 0.16,-1.417 z"
   id="path271" />
	<path
   d="m 299.179,329.847 c 0,0.78 -0.085,1.481 -0.253,2.102 -0.169,0.622 -0.417,1.148 -0.744,1.582 -0.327,0.434 -0.732,0.767 -1.215,1.001 -0.483,0.234 -1.034,0.352 -1.655,0.352 -0.265,0 -0.51,-0.026 -0.734,-0.08 -0.225,-0.053 -0.444,-0.135 -0.659,-0.248 -0.215,-0.113 -0.428,-0.254 -0.64,-0.427 -0.211,-0.171 -0.436,-0.373 -0.674,-0.604 v 4.462 c 0,0.053 -0.014,0.099 -0.04,0.139 -0.026,0.04 -0.069,0.073 -0.129,0.099 -0.06,0.026 -0.142,0.046 -0.248,0.06 -0.105,0.013 -0.241,0.02 -0.406,0.02 -0.158,0 -0.291,-0.007 -0.396,-0.02 -0.105,-0.013 -0.19,-0.033 -0.253,-0.06 -0.063,-0.027 -0.105,-0.059 -0.129,-0.099 -0.023,-0.04 -0.034,-0.086 -0.034,-0.139 v -12.464 c 0,-0.06 0.01,-0.107 0.029,-0.144 0.02,-0.036 0.06,-0.067 0.119,-0.094 0.06,-0.026 0.135,-0.044 0.228,-0.054 0.093,-0.01 0.205,-0.015 0.338,-0.015 0.139,0 0.252,0.005 0.342,0.015 0.089,0.01 0.163,0.028 0.223,0.054 0.06,0.027 0.101,0.058 0.124,0.094 0.023,0.037 0.035,0.084 0.035,0.144 v 1.2 c 0.271,-0.278 0.532,-0.519 0.783,-0.724 0.251,-0.205 0.504,-0.375 0.759,-0.511 0.254,-0.136 0.516,-0.238 0.783,-0.308 0.267,-0.07 0.55,-0.104 0.848,-0.104 0.647,0 1.2,0.125 1.656,0.377 0.456,0.251 0.827,0.595 1.115,1.031 0.287,0.436 0.497,0.943 0.63,1.522 0.13,0.58 0.197,1.193 0.197,1.841 z m -1.697,0.188 c 0,-0.457 -0.034,-0.897 -0.104,-1.324 -0.069,-0.427 -0.189,-0.805 -0.359,-1.136 -0.169,-0.33 -0.397,-0.595 -0.683,-0.793 -0.286,-0.198 -0.643,-0.297 -1.067,-0.297 -0.213,0 -0.423,0.031 -0.629,0.094 -0.206,0.063 -0.416,0.162 -0.629,0.297 -0.213,0.135 -0.436,0.314 -0.668,0.535 -0.233,0.222 -0.479,0.495 -0.738,0.818 v 3.55 c 0.452,0.549 0.881,0.968 1.287,1.259 0.405,0.291 0.831,0.436 1.276,0.436 0.413,0 0.767,-0.099 1.063,-0.297 0.296,-0.198 0.536,-0.462 0.719,-0.793 0.183,-0.33 0.317,-0.7 0.404,-1.11 0.085,-0.409 0.128,-0.823 0.128,-1.239 z"
   id="path273" />
	<path
   d="m 306.853,326.108 c 0,0.146 -0.003,0.268 -0.01,0.367 -0.007,0.099 -0.02,0.177 -0.039,0.233 -0.021,0.056 -0.045,0.099 -0.075,0.129 -0.029,0.029 -0.07,0.044 -0.124,0.044 -0.053,0 -0.117,-0.015 -0.193,-0.044 -0.075,-0.03 -0.161,-0.06 -0.258,-0.089 -0.096,-0.03 -0.203,-0.058 -0.322,-0.084 -0.118,-0.026 -0.247,-0.04 -0.387,-0.04 -0.165,0 -0.327,0.033 -0.485,0.099 -0.158,0.066 -0.326,0.175 -0.501,0.327 -0.175,0.152 -0.358,0.354 -0.55,0.605 -0.192,0.251 -0.403,0.559 -0.635,0.922 v 5.87 c 0,0.053 -0.014,0.098 -0.04,0.134 -0.026,0.037 -0.069,0.068 -0.129,0.094 -0.06,0.026 -0.142,0.046 -0.248,0.06 -0.105,0.013 -0.241,0.02 -0.406,0.02 -0.158,0 -0.291,-0.007 -0.396,-0.02 -0.105,-0.013 -0.19,-0.033 -0.253,-0.06 -0.063,-0.027 -0.105,-0.058 -0.129,-0.094 -0.023,-0.036 -0.034,-0.081 -0.034,-0.134 v -8.924 c 0,-0.053 0.01,-0.098 0.029,-0.134 0.02,-0.037 0.06,-0.07 0.119,-0.099 0.06,-0.03 0.135,-0.05 0.228,-0.06 0.093,-0.01 0.215,-0.015 0.367,-0.015 0.146,0 0.266,0.005 0.362,0.015 0.096,0.01 0.17,0.03 0.223,0.06 0.053,0.029 0.091,0.063 0.114,0.099 0.022,0.036 0.034,0.081 0.034,0.134 v 1.299 c 0.245,-0.357 0.475,-0.648 0.689,-0.873 0.214,-0.225 0.418,-0.401 0.61,-0.53 0.191,-0.129 0.381,-0.218 0.569,-0.268 0.188,-0.049 0.379,-0.074 0.57,-0.074 0.086,0 0.184,0.005 0.293,0.015 0.108,0.01 0.223,0.028 0.342,0.055 0.119,0.027 0.227,0.056 0.322,0.089 0.095,0.033 0.164,0.066 0.203,0.099 0.04,0.033 0.066,0.064 0.079,0.094 0.014,0.03 0.025,0.068 0.035,0.114 0.01,0.046 0.017,0.114 0.02,0.204 0.005,0.088 0.006,0.21 0.006,0.361 z"
   id="path275" />
	<path
   d="m 310.542,322.509 c 0,0.384 -0.073,0.645 -0.219,0.784 -0.146,0.139 -0.413,0.208 -0.803,0.208 -0.384,0 -0.646,-0.068 -0.788,-0.203 -0.143,-0.136 -0.214,-0.392 -0.214,-0.769 0,-0.383 0.073,-0.645 0.219,-0.783 0.146,-0.139 0.413,-0.208 0.803,-0.208 0.384,0 0.646,0.068 0.788,0.204 0.143,0.134 0.214,0.39 0.214,0.767 z m -0.188,11.938 c 0,0.053 -0.014,0.098 -0.04,0.134 -0.026,0.037 -0.069,0.068 -0.129,0.094 -0.06,0.026 -0.142,0.046 -0.248,0.06 -0.105,0.013 -0.241,0.02 -0.406,0.02 -0.158,0 -0.291,-0.007 -0.396,-0.02 -0.105,-0.013 -0.19,-0.033 -0.253,-0.06 -0.063,-0.027 -0.105,-0.058 -0.129,-0.094 -0.023,-0.036 -0.034,-0.081 -0.034,-0.134 v -8.924 c 0,-0.046 0.011,-0.089 0.034,-0.129 0.023,-0.04 0.066,-0.073 0.129,-0.099 0.063,-0.026 0.147,-0.046 0.253,-0.06 0.106,-0.014 0.238,-0.02 0.396,-0.02 0.165,0 0.301,0.007 0.406,0.02 0.106,0.013 0.188,0.033 0.248,0.06 0.06,0.027 0.103,0.06 0.129,0.099 0.026,0.039 0.04,0.083 0.04,0.129 z"
   id="path277" />
	<path
   d="m 320.101,334.458 c 0,0.079 -0.026,0.139 -0.08,0.178 -0.053,0.04 -0.125,0.069 -0.218,0.089 -0.093,0.02 -0.228,0.03 -0.406,0.03 -0.172,0 -0.31,-0.01 -0.412,-0.03 -0.102,-0.02 -0.177,-0.05 -0.223,-0.089 -0.047,-0.04 -0.069,-0.099 -0.069,-0.178 v -0.893 c -0.391,0.417 -0.825,0.74 -1.304,0.972 -0.479,0.231 -0.987,0.347 -1.522,0.347 -0.47,0 -0.895,-0.061 -1.274,-0.184 -0.38,-0.122 -0.704,-0.299 -0.972,-0.53 -0.268,-0.231 -0.476,-0.516 -0.624,-0.853 -0.149,-0.337 -0.224,-0.72 -0.224,-1.15 0,-0.502 0.103,-0.939 0.308,-1.309 0.205,-0.37 0.499,-0.677 0.883,-0.922 0.383,-0.245 0.853,-0.428 1.407,-0.551 0.556,-0.122 1.181,-0.183 1.874,-0.183 h 1.229 v -0.694 c 0,-0.343 -0.036,-0.647 -0.108,-0.912 -0.073,-0.264 -0.19,-0.484 -0.353,-0.659 -0.162,-0.175 -0.371,-0.308 -0.629,-0.397 -0.258,-0.089 -0.575,-0.134 -0.952,-0.134 -0.403,0 -0.766,0.048 -1.086,0.144 -0.32,0.096 -0.602,0.202 -0.843,0.317 -0.241,0.116 -0.443,0.222 -0.604,0.317 -0.162,0.096 -0.283,0.144 -0.362,0.144 -0.053,0 -0.1,-0.013 -0.139,-0.04 -0.04,-0.026 -0.074,-0.066 -0.104,-0.119 -0.029,-0.053 -0.051,-0.121 -0.064,-0.204 -0.013,-0.083 -0.02,-0.173 -0.02,-0.272 0,-0.165 0.012,-0.296 0.034,-0.392 0.023,-0.096 0.08,-0.187 0.169,-0.273 0.089,-0.085 0.243,-0.187 0.461,-0.302 0.219,-0.116 0.47,-0.221 0.754,-0.317 0.284,-0.096 0.595,-0.175 0.932,-0.238 0.338,-0.063 0.678,-0.094 1.021,-0.094 0.642,0 1.187,0.073 1.636,0.218 0.45,0.146 0.813,0.358 1.091,0.64 0.278,0.281 0.479,0.629 0.605,1.046 0.125,0.417 0.188,0.902 0.188,1.458 z m -1.627,-4.076 h -1.397 c -0.45,0 -0.84,0.038 -1.17,0.114 -0.331,0.076 -0.605,0.188 -0.823,0.337 -0.218,0.149 -0.379,0.327 -0.481,0.536 -0.103,0.208 -0.153,0.448 -0.153,0.719 0,0.463 0.147,0.832 0.441,1.105 0.294,0.274 0.705,0.412 1.234,0.412 0.43,0 0.828,-0.109 1.195,-0.327 0.366,-0.218 0.752,-0.552 1.154,-1.001 z"
   id="path279" />
	<path
   d="m 330.681,325.266 c 0.198,0 0.334,0.044 0.406,0.134 0.072,0.09 0.109,0.22 0.109,0.392 v 8.656 c 0,0.053 -0.014,0.098 -0.04,0.134 -0.026,0.037 -0.071,0.068 -0.134,0.094 -0.063,0.026 -0.147,0.046 -0.253,0.06 -0.106,0.014 -0.234,0.02 -0.387,0.02 -0.165,0 -0.301,-0.007 -0.406,-0.02 -0.105,-0.013 -0.19,-0.033 -0.253,-0.06 -0.063,-0.027 -0.107,-0.058 -0.134,-0.094 -0.026,-0.036 -0.04,-0.081 -0.04,-0.134 v -7.823 h -4.61 v 4.978 c 0,0.615 0.091,1.079 0.272,1.393 0.181,0.314 0.507,0.471 0.977,0.471 0.152,0 0.288,-0.015 0.406,-0.044 0.119,-0.03 0.226,-0.061 0.317,-0.094 0.093,-0.033 0.172,-0.064 0.238,-0.094 0.066,-0.03 0.126,-0.045 0.179,-0.045 0.033,0 0.064,0.008 0.094,0.025 0.03,0.017 0.053,0.048 0.069,0.094 0.016,0.046 0.031,0.109 0.045,0.188 0.014,0.079 0.02,0.178 0.02,0.297 0,0.192 -0.013,0.342 -0.039,0.451 -0.026,0.109 -0.066,0.192 -0.119,0.248 -0.053,0.056 -0.133,0.107 -0.238,0.153 -0.105,0.046 -0.227,0.084 -0.361,0.114 -0.136,0.03 -0.279,0.055 -0.432,0.074 -0.152,0.02 -0.304,0.03 -0.456,0.03 -0.463,0 -0.859,-0.061 -1.19,-0.183 -0.33,-0.123 -0.602,-0.308 -0.813,-0.556 -0.212,-0.248 -0.365,-0.562 -0.461,-0.942 -0.096,-0.38 -0.145,-0.828 -0.145,-1.343 v -5.216 h -1.249 c -0.099,0 -0.179,-0.053 -0.238,-0.159 -0.059,-0.105 -0.089,-0.278 -0.089,-0.516 0,-0.125 0.008,-0.231 0.024,-0.317 0.016,-0.086 0.038,-0.157 0.064,-0.213 0.026,-0.056 0.062,-0.096 0.104,-0.119 0.042,-0.023 0.091,-0.035 0.144,-0.035 h 1.239 v -2.122 c 0,-0.046 0.012,-0.089 0.035,-0.129 0.023,-0.04 0.066,-0.074 0.129,-0.104 0.063,-0.03 0.147,-0.051 0.253,-0.064 0.106,-0.013 0.238,-0.02 0.396,-0.02 0.165,0 0.301,0.007 0.406,0.02 0.106,0.013 0.188,0.035 0.248,0.064 0.06,0.029 0.103,0.064 0.129,0.104 0.026,0.04 0.04,0.083 0.04,0.129 v 2.122 h 5.744 z m 0.704,-2.757 c 0,0.384 -0.073,0.645 -0.219,0.784 -0.146,0.139 -0.413,0.208 -0.803,0.208 -0.384,0 -0.646,-0.068 -0.788,-0.203 -0.143,-0.136 -0.214,-0.392 -0.214,-0.769 0,-0.383 0.073,-0.645 0.219,-0.783 0.146,-0.139 0.413,-0.208 0.803,-0.208 0.384,0 0.646,0.068 0.788,0.204 0.142,0.134 0.214,0.39 0.214,0.767 z"
   id="path281" />
	<path
   d="m 342.529,329.886 c 0,0.727 -0.096,1.396 -0.287,2.008 -0.192,0.612 -0.478,1.139 -0.858,1.582 -0.38,0.443 -0.855,0.789 -1.428,1.036 -0.571,0.248 -1.234,0.372 -1.988,0.372 -0.733,0 -1.373,-0.109 -1.918,-0.327 -0.546,-0.218 -1,-0.536 -1.363,-0.952 -0.364,-0.417 -0.635,-0.922 -0.813,-1.517 -0.179,-0.595 -0.268,-1.269 -0.268,-2.022 0,-0.728 0.094,-1.396 0.282,-2.008 0.188,-0.611 0.473,-1.139 0.853,-1.582 0.381,-0.443 0.854,-0.787 1.423,-1.031 0.569,-0.244 1.233,-0.367 1.993,-0.367 0.734,0 1.374,0.109 1.919,0.327 0.546,0.218 1,0.536 1.363,0.952 0.363,0.416 0.637,0.922 0.818,1.517 0.181,0.594 0.272,1.265 0.272,2.012 z m -1.695,0.109 c 0,-0.482 -0.045,-0.938 -0.136,-1.368 -0.09,-0.43 -0.238,-0.807 -0.444,-1.13 -0.207,-0.324 -0.487,-0.58 -0.841,-0.769 -0.354,-0.189 -0.794,-0.283 -1.32,-0.283 -0.487,0 -0.906,0.086 -1.256,0.258 -0.351,0.172 -0.639,0.415 -0.866,0.729 -0.227,0.314 -0.395,0.686 -0.505,1.116 -0.11,0.43 -0.165,0.899 -0.165,1.408 0,0.489 0.045,0.949 0.135,1.378 0.091,0.43 0.24,0.805 0.45,1.125 0.211,0.321 0.492,0.575 0.846,0.763 0.354,0.188 0.794,0.283 1.321,0.283 0.479,0 0.896,-0.086 1.25,-0.258 0.354,-0.172 0.644,-0.413 0.87,-0.724 0.228,-0.311 0.394,-0.681 0.501,-1.111 0.106,-0.429 0.16,-0.901 0.16,-1.417 z"
   id="path283" />
	<path
   d="m 352.624,334.447 c 0,0.053 -0.014,0.098 -0.04,0.134 -0.026,0.037 -0.069,0.068 -0.129,0.094 -0.06,0.026 -0.143,0.046 -0.248,0.06 -0.105,0.014 -0.238,0.02 -0.396,0.02 -0.165,0 -0.301,-0.007 -0.406,-0.02 -0.106,-0.013 -0.188,-0.033 -0.248,-0.06 -0.06,-0.027 -0.103,-0.058 -0.129,-0.094 -0.026,-0.036 -0.04,-0.081 -0.04,-0.134 v -5.226 c 0,-0.509 -0.039,-0.918 -0.119,-1.229 -0.079,-0.311 -0.194,-0.578 -0.347,-0.803 -0.152,-0.225 -0.349,-0.396 -0.59,-0.516 -0.241,-0.119 -0.521,-0.178 -0.838,-0.178 -0.41,0 -0.82,0.146 -1.229,0.436 -0.41,0.291 -0.84,0.718 -1.289,1.279 v 6.237 c 0,0.053 -0.014,0.098 -0.04,0.134 -0.026,0.037 -0.069,0.068 -0.129,0.094 -0.06,0.026 -0.142,0.046 -0.248,0.06 -0.105,0.013 -0.241,0.02 -0.406,0.02 -0.158,0 -0.291,-0.007 -0.396,-0.02 -0.105,-0.013 -0.19,-0.033 -0.253,-0.06 -0.063,-0.027 -0.105,-0.058 -0.129,-0.094 -0.023,-0.036 -0.034,-0.081 -0.034,-0.134 v -8.924 c 0,-0.053 0.01,-0.098 0.029,-0.134 0.02,-0.037 0.06,-0.07 0.119,-0.099 0.06,-0.03 0.135,-0.05 0.228,-0.06 0.093,-0.01 0.215,-0.015 0.367,-0.015 0.146,0 0.266,0.005 0.362,0.015 0.096,0.01 0.17,0.03 0.223,0.06 0.053,0.029 0.091,0.063 0.114,0.099 0.022,0.036 0.034,0.081 0.034,0.134 v 1.18 c 0.503,-0.562 1.003,-0.973 1.503,-1.234 0.499,-0.261 1.003,-0.392 1.512,-0.392 0.595,0 1.096,0.101 1.502,0.302 0.407,0.202 0.735,0.471 0.987,0.808 0.251,0.337 0.431,0.732 0.54,1.185 0.109,0.453 0.164,0.997 0.164,1.631 v 5.444 z"
   id="path285" />
	<path
   d="m 366.614,333.089 c 0,0.113 -0.004,0.21 -0.01,0.292 -0.007,0.083 -0.019,0.152 -0.035,0.208 -0.016,0.056 -0.036,0.105 -0.06,0.148 -0.023,0.043 -0.076,0.106 -0.158,0.188 -0.083,0.083 -0.224,0.185 -0.422,0.308 -0.198,0.122 -0.421,0.231 -0.669,0.327 -0.248,0.096 -0.518,0.173 -0.809,0.233 -0.291,0.06 -0.591,0.089 -0.902,0.089 -0.641,0 -1.209,-0.106 -1.705,-0.317 -0.496,-0.211 -0.911,-0.521 -1.244,-0.927 -0.334,-0.406 -0.589,-0.905 -0.764,-1.497 -0.176,-0.592 -0.263,-1.274 -0.263,-2.048 0,-0.879 0.107,-1.634 0.322,-2.266 0.215,-0.631 0.509,-1.148 0.882,-1.552 0.374,-0.403 0.813,-0.702 1.319,-0.897 0.506,-0.195 1.053,-0.292 1.641,-0.292 0.284,0 0.561,0.027 0.828,0.08 0.267,0.053 0.514,0.122 0.739,0.208 0.225,0.086 0.424,0.185 0.6,0.297 0.175,0.113 0.303,0.208 0.382,0.288 0.079,0.08 0.134,0.143 0.163,0.188 0.03,0.046 0.055,0.101 0.075,0.164 0.02,0.063 0.032,0.134 0.039,0.213 0.007,0.079 0.01,0.178 0.01,0.297 0,0.258 -0.029,0.438 -0.089,0.541 -0.06,0.103 -0.133,0.154 -0.218,0.154 -0.1,0 -0.214,-0.055 -0.343,-0.164 -0.129,-0.109 -0.292,-0.229 -0.49,-0.362 -0.198,-0.132 -0.438,-0.253 -0.72,-0.362 -0.28,-0.109 -0.612,-0.164 -0.996,-0.164 -0.787,0 -1.39,0.302 -1.81,0.907 -0.42,0.605 -0.63,1.482 -0.63,2.633 0,0.575 0.055,1.079 0.164,1.512 0.108,0.433 0.27,0.795 0.48,1.085 0.212,0.291 0.472,0.507 0.778,0.649 0.308,0.143 0.66,0.213 1.057,0.213 0.376,0 0.707,-0.06 0.991,-0.179 0.284,-0.119 0.53,-0.249 0.738,-0.392 0.209,-0.142 0.384,-0.271 0.526,-0.387 0.142,-0.115 0.253,-0.173 0.332,-0.173 0.046,0 0.086,0.013 0.119,0.04 0.032,0.026 0.061,0.071 0.084,0.134 0.023,0.063 0.04,0.143 0.05,0.238 0.01,0.095 0.018,0.213 0.018,0.345 z"
   id="path287" />
	<path
   d="m 376.917,329.886 c 0,0.727 -0.096,1.396 -0.287,2.008 -0.192,0.612 -0.478,1.139 -0.858,1.582 -0.38,0.443 -0.855,0.789 -1.428,1.036 -0.571,0.248 -1.234,0.372 -1.988,0.372 -0.733,0 -1.373,-0.109 -1.918,-0.327 -0.546,-0.218 -1,-0.536 -1.363,-0.952 -0.364,-0.417 -0.635,-0.922 -0.813,-1.517 -0.179,-0.595 -0.268,-1.269 -0.268,-2.022 0,-0.728 0.094,-1.396 0.282,-2.008 0.188,-0.611 0.473,-1.139 0.853,-1.582 0.381,-0.443 0.854,-0.787 1.423,-1.031 0.569,-0.244 1.233,-0.367 1.993,-0.367 0.734,0 1.374,0.109 1.919,0.327 0.546,0.218 1,0.536 1.363,0.952 0.363,0.416 0.637,0.922 0.818,1.517 0.181,0.594 0.272,1.265 0.272,2.012 z m -1.695,0.109 c 0,-0.482 -0.045,-0.938 -0.136,-1.368 -0.09,-0.43 -0.238,-0.807 -0.444,-1.13 -0.207,-0.324 -0.487,-0.58 -0.841,-0.769 -0.354,-0.189 -0.794,-0.283 -1.32,-0.283 -0.487,0 -0.906,0.086 -1.256,0.258 -0.351,0.172 -0.639,0.415 -0.866,0.729 -0.227,0.314 -0.395,0.686 -0.505,1.116 -0.11,0.43 -0.165,0.899 -0.165,1.408 0,0.489 0.045,0.949 0.135,1.378 0.091,0.43 0.24,0.805 0.45,1.125 0.211,0.321 0.492,0.575 0.846,0.763 0.354,0.188 0.794,0.283 1.321,0.283 0.479,0 0.896,-0.086 1.25,-0.258 0.354,-0.172 0.644,-0.413 0.87,-0.724 0.228,-0.311 0.394,-0.681 0.501,-1.111 0.106,-0.429 0.16,-0.901 0.16,-1.417 z"
   id="path289" />
	<path
   d="m 380.963,334.447 c 0,0.053 -0.014,0.098 -0.04,0.134 -0.026,0.037 -0.069,0.068 -0.129,0.094 -0.06,0.026 -0.142,0.046 -0.248,0.06 -0.105,0.013 -0.241,0.02 -0.406,0.02 -0.158,0 -0.291,-0.007 -0.396,-0.02 -0.105,-0.013 -0.19,-0.033 -0.253,-0.06 -0.063,-0.027 -0.105,-0.058 -0.129,-0.094 -0.023,-0.036 -0.034,-0.081 -0.034,-0.134 V 321.2 c 0,-0.053 0.011,-0.099 0.034,-0.139 0.023,-0.04 0.066,-0.073 0.129,-0.1 0.063,-0.026 0.147,-0.046 0.253,-0.059 0.106,-0.013 0.238,-0.02 0.396,-0.02 0.165,0 0.301,0.007 0.406,0.02 0.106,0.013 0.188,0.033 0.248,0.059 0.06,0.027 0.103,0.06 0.129,0.1 0.026,0.04 0.04,0.086 0.04,0.139 z"
   id="path291" />
	<path
   d="m 385.623,334.447 c 0,0.053 -0.014,0.098 -0.04,0.134 -0.026,0.037 -0.069,0.068 -0.129,0.094 -0.06,0.026 -0.142,0.046 -0.248,0.06 -0.105,0.013 -0.241,0.02 -0.406,0.02 -0.158,0 -0.291,-0.007 -0.396,-0.02 -0.105,-0.013 -0.19,-0.033 -0.253,-0.06 -0.063,-0.027 -0.105,-0.058 -0.129,-0.094 -0.023,-0.036 -0.034,-0.081 -0.034,-0.134 V 321.2 c 0,-0.053 0.011,-0.099 0.034,-0.139 0.023,-0.04 0.066,-0.073 0.129,-0.1 0.063,-0.026 0.147,-0.046 0.253,-0.059 0.106,-0.013 0.238,-0.02 0.396,-0.02 0.165,0 0.301,0.007 0.406,0.02 0.106,0.013 0.188,0.033 0.248,0.059 0.06,0.027 0.103,0.06 0.129,0.1 0.026,0.04 0.04,0.086 0.04,0.139 z"
   id="path293" />
	<path
   d="m 396.262,329.599 c 0,0.258 -0.064,0.441 -0.193,0.55 -0.13,0.109 -0.277,0.164 -0.443,0.164 h -5.877 c 0,0.496 0.049,0.942 0.148,1.339 0.101,0.396 0.267,0.737 0.499,1.021 0.232,0.285 0.534,0.502 0.906,0.655 0.372,0.152 0.827,0.228 1.365,0.228 0.425,0 0.804,-0.035 1.136,-0.104 0.332,-0.069 0.619,-0.147 0.862,-0.233 0.242,-0.086 0.441,-0.164 0.598,-0.233 0.157,-0.069 0.274,-0.104 0.354,-0.104 0.047,0 0.088,0.012 0.125,0.035 0.036,0.023 0.064,0.058 0.084,0.104 0.021,0.046 0.035,0.111 0.045,0.193 0.01,0.083 0.016,0.184 0.016,0.302 0,0.086 -0.004,0.161 -0.011,0.223 -0.006,0.063 -0.015,0.119 -0.024,0.169 -0.01,0.049 -0.026,0.094 -0.05,0.134 -0.022,0.04 -0.053,0.078 -0.089,0.114 -0.036,0.037 -0.144,0.096 -0.322,0.179 -0.178,0.083 -0.41,0.164 -0.694,0.243 -0.284,0.08 -0.613,0.15 -0.986,0.213 -0.374,0.063 -0.771,0.094 -1.195,0.094 -0.733,0 -1.376,-0.103 -1.928,-0.308 -0.553,-0.205 -1.017,-0.509 -1.394,-0.912 -0.377,-0.403 -0.661,-0.909 -0.853,-1.517 -0.192,-0.608 -0.288,-1.315 -0.288,-2.122 0,-0.767 0.1,-1.456 0.298,-2.067 0.198,-0.611 0.484,-1.13 0.857,-1.557 0.374,-0.426 0.825,-0.753 1.354,-0.981 0.529,-0.228 1.121,-0.342 1.775,-0.342 0.7,0 1.297,0.112 1.789,0.337 0.493,0.225 0.897,0.527 1.215,0.908 0.317,0.38 0.551,0.826 0.699,1.338 0.148,0.512 0.223,1.06 0.223,1.641 v 0.296 z m -1.646,-0.486 c 0.02,-0.859 -0.172,-1.534 -0.573,-2.023 -0.403,-0.489 -1,-0.733 -1.791,-0.733 -0.406,0 -0.762,0.076 -1.067,0.228 -0.307,0.152 -0.563,0.354 -0.769,0.604 -0.206,0.251 -0.366,0.544 -0.479,0.878 -0.113,0.333 -0.177,0.683 -0.189,1.046 z"
   id="path295" />
	<path
   d="m 405.167,333.089 c 0,0.113 -0.004,0.21 -0.01,0.292 -0.007,0.083 -0.019,0.152 -0.035,0.208 -0.016,0.056 -0.036,0.105 -0.06,0.148 -0.023,0.043 -0.076,0.106 -0.158,0.188 -0.083,0.083 -0.224,0.185 -0.422,0.308 -0.198,0.122 -0.421,0.231 -0.669,0.327 -0.248,0.096 -0.518,0.173 -0.809,0.233 -0.291,0.06 -0.591,0.089 -0.902,0.089 -0.641,0 -1.209,-0.106 -1.705,-0.317 -0.496,-0.211 -0.911,-0.521 -1.244,-0.927 -0.334,-0.406 -0.589,-0.905 -0.764,-1.497 -0.176,-0.592 -0.263,-1.274 -0.263,-2.048 0,-0.879 0.107,-1.634 0.322,-2.266 0.215,-0.631 0.509,-1.148 0.882,-1.552 0.374,-0.403 0.813,-0.702 1.319,-0.897 0.506,-0.195 1.053,-0.292 1.641,-0.292 0.284,0 0.561,0.027 0.828,0.08 0.267,0.053 0.514,0.122 0.739,0.208 0.225,0.086 0.424,0.185 0.6,0.297 0.175,0.113 0.303,0.208 0.382,0.288 0.079,0.08 0.134,0.143 0.163,0.188 0.03,0.046 0.055,0.101 0.075,0.164 0.02,0.063 0.032,0.134 0.039,0.213 0.007,0.079 0.01,0.178 0.01,0.297 0,0.258 -0.029,0.438 -0.089,0.541 -0.06,0.103 -0.133,0.154 -0.218,0.154 -0.1,0 -0.214,-0.055 -0.343,-0.164 -0.129,-0.109 -0.292,-0.229 -0.49,-0.362 -0.198,-0.132 -0.438,-0.253 -0.72,-0.362 -0.28,-0.109 -0.612,-0.164 -0.996,-0.164 -0.787,0 -1.39,0.302 -1.81,0.907 -0.42,0.605 -0.63,1.482 -0.63,2.633 0,0.575 0.055,1.079 0.164,1.512 0.108,0.433 0.27,0.795 0.48,1.085 0.212,0.291 0.472,0.507 0.778,0.649 0.308,0.143 0.66,0.213 1.057,0.213 0.376,0 0.707,-0.06 0.991,-0.179 0.284,-0.119 0.53,-0.249 0.738,-0.392 0.209,-0.142 0.384,-0.271 0.526,-0.387 0.142,-0.115 0.253,-0.173 0.332,-0.173 0.046,0 0.086,0.013 0.119,0.04 0.032,0.026 0.061,0.071 0.084,0.134 0.023,0.063 0.04,0.143 0.05,0.238 0.01,0.095 0.018,0.213 0.018,0.345 z"
   id="path297" />
	<path
   d="m 415.103,325.266 c 0.198,0 0.334,0.044 0.406,0.134 0.072,0.09 0.109,0.22 0.109,0.392 v 8.656 c 0,0.053 -0.014,0.098 -0.04,0.134 -0.026,0.037 -0.071,0.068 -0.134,0.094 -0.063,0.026 -0.147,0.046 -0.253,0.06 -0.106,0.014 -0.234,0.02 -0.387,0.02 -0.165,0 -0.301,-0.007 -0.406,-0.02 -0.105,-0.013 -0.19,-0.033 -0.253,-0.06 -0.063,-0.027 -0.107,-0.058 -0.134,-0.094 -0.026,-0.036 -0.04,-0.081 -0.04,-0.134 v -7.823 h -4.61 v 4.978 c 0,0.615 0.091,1.079 0.272,1.393 0.181,0.314 0.507,0.471 0.977,0.471 0.152,0 0.288,-0.015 0.406,-0.044 0.119,-0.03 0.226,-0.061 0.317,-0.094 0.093,-0.033 0.172,-0.064 0.238,-0.094 0.066,-0.03 0.126,-0.045 0.179,-0.045 0.033,0 0.064,0.008 0.094,0.025 0.03,0.017 0.053,0.048 0.069,0.094 0.016,0.046 0.031,0.109 0.045,0.188 0.014,0.079 0.02,0.178 0.02,0.297 0,0.192 -0.013,0.342 -0.039,0.451 -0.026,0.109 -0.066,0.192 -0.119,0.248 -0.053,0.056 -0.133,0.107 -0.238,0.153 -0.105,0.046 -0.227,0.084 -0.361,0.114 -0.136,0.03 -0.279,0.055 -0.432,0.074 -0.152,0.02 -0.304,0.03 -0.456,0.03 -0.463,0 -0.859,-0.061 -1.19,-0.183 -0.33,-0.123 -0.602,-0.308 -0.813,-0.556 -0.212,-0.248 -0.365,-0.562 -0.461,-0.942 -0.096,-0.38 -0.145,-0.828 -0.145,-1.343 v -5.216 h -1.249 c -0.099,0 -0.179,-0.053 -0.238,-0.159 -0.059,-0.105 -0.089,-0.278 -0.089,-0.516 0,-0.125 0.008,-0.231 0.024,-0.317 0.016,-0.086 0.038,-0.157 0.064,-0.213 0.026,-0.056 0.062,-0.096 0.104,-0.119 0.042,-0.023 0.091,-0.035 0.144,-0.035 h 1.239 v -2.122 c 0,-0.046 0.012,-0.089 0.035,-0.129 0.023,-0.04 0.066,-0.074 0.129,-0.104 0.063,-0.03 0.147,-0.051 0.253,-0.064 0.106,-0.013 0.238,-0.02 0.396,-0.02 0.165,0 0.301,0.007 0.406,0.02 0.106,0.013 0.188,0.035 0.248,0.064 0.06,0.029 0.103,0.064 0.129,0.104 0.026,0.04 0.04,0.083 0.04,0.129 v 2.122 h 5.744 z m 0.704,-2.757 c 0,0.384 -0.073,0.645 -0.219,0.784 -0.146,0.139 -0.413,0.208 -0.803,0.208 -0.384,0 -0.646,-0.068 -0.788,-0.203 -0.143,-0.136 -0.214,-0.392 -0.214,-0.769 0,-0.383 0.073,-0.645 0.219,-0.783 0.146,-0.139 0.413,-0.208 0.803,-0.208 0.384,0 0.646,0.068 0.788,0.204 0.142,0.134 0.214,0.39 0.214,0.767 z"
   id="path299" />
	<path
   d="m 425.97,325.503 c 0,0.026 -0.002,0.055 -0.005,0.084 -0.004,0.03 -0.009,0.061 -0.015,0.094 -0.007,0.033 -0.016,0.069 -0.025,0.109 -0.009,0.04 -0.021,0.083 -0.034,0.129 l -3.045,8.478 c -0.026,0.073 -0.061,0.132 -0.104,0.178 -0.043,0.046 -0.107,0.083 -0.193,0.109 -0.086,0.026 -0.195,0.044 -0.327,0.054 -0.133,0.01 -0.298,0.015 -0.496,0.015 -0.198,0 -0.363,-0.007 -0.496,-0.02 -0.132,-0.013 -0.239,-0.033 -0.322,-0.06 -0.082,-0.026 -0.146,-0.063 -0.193,-0.109 -0.046,-0.046 -0.082,-0.103 -0.108,-0.168 l -3.034,-8.478 c -0.026,-0.079 -0.048,-0.149 -0.064,-0.208 -0.017,-0.06 -0.026,-0.104 -0.03,-0.134 -0.003,-0.029 -0.005,-0.054 -0.005,-0.074 0,-0.053 0.014,-0.099 0.04,-0.139 0.026,-0.04 0.07,-0.071 0.134,-0.094 0.063,-0.023 0.146,-0.038 0.248,-0.044 0.103,-0.007 0.229,-0.01 0.382,-0.01 0.191,0 0.345,0.005 0.461,0.015 0.115,0.01 0.205,0.028 0.268,0.054 0.063,0.027 0.109,0.06 0.139,0.099 0.03,0.04 0.058,0.089 0.084,0.149 l 2.519,7.357 0.04,0.119 0.03,-0.119 2.488,-7.357 c 0.014,-0.06 0.036,-0.109 0.069,-0.149 0.033,-0.04 0.081,-0.072 0.144,-0.099 0.063,-0.026 0.149,-0.044 0.258,-0.054 0.109,-0.01 0.253,-0.015 0.432,-0.015 0.152,0 0.277,0.003 0.377,0.01 0.099,0.006 0.177,0.023 0.232,0.049 0.057,0.026 0.097,0.058 0.119,0.094 0.02,0.038 0.032,0.083 0.032,0.135 z"
   id="path301" />
	<path
   d="m 435.24,329.599 c 0,0.258 -0.064,0.441 -0.193,0.55 -0.13,0.109 -0.277,0.164 -0.443,0.164 h -5.877 c 0,0.496 0.049,0.942 0.148,1.339 0.101,0.396 0.267,0.737 0.499,1.021 0.232,0.285 0.534,0.502 0.906,0.655 0.372,0.152 0.827,0.228 1.365,0.228 0.425,0 0.804,-0.035 1.136,-0.104 0.332,-0.069 0.619,-0.147 0.862,-0.233 0.242,-0.086 0.441,-0.164 0.598,-0.233 0.157,-0.069 0.274,-0.104 0.354,-0.104 0.047,0 0.088,0.012 0.125,0.035 0.036,0.023 0.064,0.058 0.084,0.104 0.021,0.046 0.035,0.111 0.045,0.193 0.01,0.083 0.016,0.184 0.016,0.302 0,0.086 -0.004,0.161 -0.011,0.223 -0.006,0.063 -0.015,0.119 -0.024,0.169 -0.01,0.049 -0.026,0.094 -0.05,0.134 -0.022,0.04 -0.053,0.078 -0.089,0.114 -0.036,0.037 -0.144,0.096 -0.322,0.179 -0.178,0.083 -0.41,0.164 -0.694,0.243 -0.284,0.08 -0.613,0.15 -0.986,0.213 -0.374,0.063 -0.771,0.094 -1.195,0.094 -0.733,0 -1.376,-0.103 -1.928,-0.308 -0.553,-0.205 -1.017,-0.509 -1.394,-0.912 -0.377,-0.403 -0.661,-0.909 -0.853,-1.517 -0.192,-0.608 -0.288,-1.315 -0.288,-2.122 0,-0.767 0.1,-1.456 0.298,-2.067 0.198,-0.611 0.484,-1.13 0.857,-1.557 0.374,-0.426 0.825,-0.753 1.354,-0.981 0.529,-0.228 1.121,-0.342 1.775,-0.342 0.7,0 1.297,0.112 1.789,0.337 0.493,0.225 0.897,0.527 1.215,0.908 0.317,0.38 0.551,0.826 0.699,1.338 0.148,0.512 0.223,1.06 0.223,1.641 v 0.296 z m -1.645,-0.486 c 0.02,-0.859 -0.172,-1.534 -0.573,-2.023 -0.403,-0.489 -1,-0.733 -1.791,-0.733 -0.406,0 -0.762,0.076 -1.067,0.228 -0.307,0.152 -0.563,0.354 -0.769,0.604 -0.206,0.251 -0.366,0.544 -0.479,0.878 -0.113,0.333 -0.177,0.683 -0.189,1.046 z"
   id="path303" />
	<path
   d="m 198.703,358.816 c 0,0.053 -0.012,0.1 -0.035,0.139 -0.023,0.04 -0.063,0.071 -0.119,0.095 -0.056,0.022 -0.13,0.041 -0.223,0.055 -0.093,0.013 -0.205,0.02 -0.337,0.02 -0.139,0 -0.255,-0.007 -0.347,-0.02 -0.093,-0.014 -0.168,-0.032 -0.228,-0.055 -0.06,-0.023 -0.103,-0.055 -0.129,-0.095 -0.026,-0.039 -0.04,-0.086 -0.04,-0.139 v -1.18 c -0.47,0.509 -0.957,0.905 -1.463,1.189 -0.505,0.284 -1.059,0.427 -1.661,0.427 -0.654,0 -1.213,-0.127 -1.676,-0.382 -0.463,-0.254 -0.838,-0.599 -1.125,-1.031 -0.287,-0.432 -0.498,-0.942 -0.629,-1.527 -0.132,-0.584 -0.199,-1.201 -0.199,-1.849 0,-0.767 0.083,-1.459 0.248,-2.077 0.165,-0.618 0.41,-1.145 0.734,-1.582 0.324,-0.436 0.726,-0.771 1.205,-1.006 0.479,-0.235 1.033,-0.352 1.661,-0.352 0.522,0 1,0.114 1.433,0.342 0.433,0.228 0.861,0.563 1.284,1.006 v -5.186 c 0,-0.046 0.011,-0.091 0.035,-0.134 0.023,-0.043 0.068,-0.076 0.134,-0.099 0.066,-0.023 0.15,-0.043 0.253,-0.06 0.103,-0.017 0.233,-0.025 0.392,-0.025 0.165,0 0.301,0.008 0.407,0.025 0.105,0.017 0.188,0.037 0.248,0.06 0.06,0.023 0.104,0.056 0.134,0.099 0.029,0.043 0.044,0.088 0.044,0.134 v 13.208 z m -1.646,-6.276 c -0.443,-0.549 -0.871,-0.967 -1.284,-1.254 -0.413,-0.287 -0.844,-0.431 -1.294,-0.431 -0.417,0 -0.77,0.099 -1.061,0.297 -0.291,0.198 -0.527,0.459 -0.709,0.783 -0.182,0.324 -0.314,0.691 -0.396,1.101 -0.083,0.41 -0.124,0.827 -0.124,1.25 0,0.45 0.035,0.889 0.104,1.319 0.069,0.429 0.19,0.811 0.362,1.145 0.172,0.334 0.4,0.602 0.685,0.804 0.284,0.201 0.641,0.302 1.071,0.302 0.218,0 0.428,-0.029 0.629,-0.089 0.201,-0.06 0.408,-0.159 0.62,-0.298 0.211,-0.139 0.433,-0.318 0.664,-0.54 0.231,-0.222 0.476,-0.494 0.734,-0.818 v -3.571 z"
   id="path305" />
	<path
   d="m 209.343,353.968 c 0,0.258 -0.065,0.441 -0.194,0.55 -0.129,0.109 -0.277,0.164 -0.443,0.164 h -5.877 c 0,0.496 0.05,0.942 0.149,1.339 0.1,0.396 0.266,0.737 0.498,1.021 0.232,0.284 0.535,0.502 0.907,0.654 0.372,0.152 0.827,0.228 1.365,0.228 0.425,0 0.804,-0.034 1.136,-0.104 0.332,-0.07 0.62,-0.147 0.862,-0.233 0.243,-0.086 0.442,-0.163 0.598,-0.233 0.156,-0.069 0.274,-0.104 0.354,-0.104 0.047,0 0.088,0.012 0.125,0.034 0.037,0.023 0.065,0.059 0.085,0.104 0.02,0.046 0.035,0.11 0.045,0.193 0.01,0.083 0.015,0.184 0.015,0.303 0,0.086 -0.003,0.16 -0.01,0.223 -0.007,0.063 -0.015,0.119 -0.025,0.169 -0.01,0.05 -0.026,0.094 -0.049,0.134 -0.023,0.039 -0.053,0.078 -0.089,0.114 -0.037,0.036 -0.144,0.096 -0.322,0.178 -0.179,0.083 -0.41,0.164 -0.694,0.243 -0.284,0.079 -0.613,0.15 -0.986,0.213 -0.374,0.063 -0.772,0.095 -1.195,0.095 -0.734,0 -1.377,-0.103 -1.929,-0.308 -0.552,-0.205 -1.016,-0.509 -1.393,-0.912 -0.377,-0.403 -0.661,-0.909 -0.853,-1.517 -0.191,-0.608 -0.287,-1.316 -0.287,-2.123 0,-0.767 0.099,-1.456 0.297,-2.067 0.198,-0.611 0.484,-1.13 0.857,-1.557 0.373,-0.427 0.825,-0.753 1.354,-0.981 0.529,-0.228 1.121,-0.342 1.775,-0.342 0.701,0 1.297,0.112 1.79,0.337 0.492,0.225 0.897,0.527 1.214,0.908 0.317,0.38 0.55,0.826 0.699,1.338 0.149,0.512 0.223,1.06 0.223,1.641 v 0.298 z m -1.646,-0.486 c 0.02,-0.859 -0.171,-1.534 -0.574,-2.023 -0.402,-0.489 -1,-0.733 -1.791,-0.733 -0.406,0 -0.762,0.076 -1.068,0.228 -0.306,0.152 -0.562,0.354 -0.768,0.604 -0.206,0.251 -0.366,0.544 -0.479,0.878 -0.113,0.333 -0.176,0.683 -0.189,1.046 z"
   id="path307" />
	<path
   d="m 218.059,358.816 c 0,0.053 -0.014,0.098 -0.04,0.134 -0.026,0.037 -0.069,0.068 -0.129,0.095 -0.059,0.026 -0.142,0.046 -0.248,0.06 -0.106,0.013 -0.242,0.02 -0.407,0.02 -0.159,0 -0.291,-0.007 -0.396,-0.02 -0.106,-0.014 -0.19,-0.033 -0.253,-0.06 -0.063,-0.027 -0.106,-0.058 -0.129,-0.095 -0.023,-0.036 -0.035,-0.081 -0.035,-0.134 v -13.247 c 0,-0.053 0.011,-0.099 0.035,-0.139 0.023,-0.04 0.066,-0.073 0.129,-0.1 0.063,-0.026 0.147,-0.046 0.253,-0.059 0.105,-0.013 0.238,-0.02 0.396,-0.02 0.165,0 0.301,0.007 0.407,0.02 0.105,0.013 0.188,0.033 0.248,0.059 0.06,0.027 0.103,0.06 0.129,0.1 0.026,0.04 0.04,0.086 0.04,0.139 z"
   id="path309" />
	<path
   d="m 223.244,345.996 c 0,0.205 -0.01,0.392 -0.03,0.56 -0.02,0.169 -0.053,0.331 -0.099,0.486 -0.046,0.156 -0.107,0.308 -0.184,0.457 -0.076,0.148 -0.17,0.302 -0.282,0.461 l -1.359,2.042 c -0.033,0.046 -0.071,0.089 -0.114,0.129 -0.043,0.04 -0.096,0.071 -0.159,0.094 -0.063,0.023 -0.136,0.04 -0.218,0.05 -0.083,0.01 -0.187,0.015 -0.312,0.015 -0.113,0 -0.207,-0.005 -0.283,-0.015 -0.076,-0.01 -0.131,-0.026 -0.164,-0.05 -0.033,-0.023 -0.051,-0.055 -0.055,-0.094 -0.004,-0.039 0.008,-0.089 0.035,-0.148 l 1.319,-2.727 v -1.259 c 0,-0.172 0.018,-0.311 0.055,-0.417 0.036,-0.105 0.094,-0.188 0.173,-0.248 0.08,-0.059 0.179,-0.099 0.297,-0.119 0.119,-0.02 0.265,-0.03 0.437,-0.03 0.165,0 0.307,0.01 0.426,0.03 0.119,0.02 0.216,0.06 0.292,0.119 0.076,0.06 0.132,0.143 0.168,0.248 0.039,0.105 0.057,0.244 0.057,0.416 z"
   id="path311" />
	<path
   d="m 228.054,346.878 c 0,0.384 -0.073,0.645 -0.219,0.784 -0.146,0.139 -0.413,0.208 -0.803,0.208 -0.384,0 -0.646,-0.068 -0.788,-0.203 -0.143,-0.136 -0.214,-0.392 -0.214,-0.769 0,-0.383 0.073,-0.645 0.219,-0.783 0.146,-0.139 0.413,-0.208 0.803,-0.208 0.384,0 0.646,0.068 0.788,0.204 0.142,0.134 0.214,0.39 0.214,0.767 z m -0.189,11.938 c 0,0.053 -0.014,0.098 -0.04,0.134 -0.026,0.037 -0.069,0.068 -0.129,0.095 -0.06,0.027 -0.142,0.046 -0.248,0.06 -0.105,0.013 -0.241,0.02 -0.406,0.02 -0.158,0 -0.291,-0.007 -0.396,-0.02 -0.105,-0.014 -0.19,-0.033 -0.253,-0.06 -0.063,-0.027 -0.105,-0.058 -0.129,-0.095 -0.023,-0.036 -0.034,-0.081 -0.034,-0.134 v -8.924 c 0,-0.046 0.011,-0.089 0.034,-0.129 0.023,-0.04 0.066,-0.073 0.129,-0.099 0.063,-0.026 0.147,-0.046 0.253,-0.06 0.106,-0.014 0.238,-0.02 0.396,-0.02 0.165,0 0.301,0.007 0.406,0.02 0.106,0.013 0.188,0.033 0.248,0.06 0.06,0.027 0.103,0.06 0.129,0.099 0.026,0.039 0.04,0.083 0.04,0.129 z"
   id="path313" />
	<path
   d="m 238.574,358.816 c 0,0.053 -0.014,0.098 -0.04,0.134 -0.026,0.037 -0.069,0.068 -0.129,0.095 -0.06,0.027 -0.143,0.046 -0.248,0.06 -0.105,0.013 -0.238,0.02 -0.396,0.02 -0.165,0 -0.301,-0.007 -0.406,-0.02 -0.106,-0.014 -0.188,-0.033 -0.248,-0.06 -0.06,-0.027 -0.103,-0.058 -0.129,-0.095 -0.026,-0.036 -0.04,-0.081 -0.04,-0.134 v -5.226 c 0,-0.509 -0.039,-0.918 -0.119,-1.229 -0.079,-0.311 -0.194,-0.578 -0.347,-0.803 -0.152,-0.225 -0.349,-0.396 -0.59,-0.516 -0.241,-0.119 -0.521,-0.178 -0.838,-0.178 -0.41,0 -0.82,0.146 -1.229,0.436 -0.41,0.291 -0.84,0.718 -1.289,1.279 v 6.237 c 0,0.053 -0.014,0.098 -0.04,0.134 -0.026,0.037 -0.069,0.068 -0.129,0.095 -0.06,0.027 -0.142,0.046 -0.248,0.06 -0.105,0.013 -0.241,0.02 -0.406,0.02 -0.158,0 -0.291,-0.007 -0.396,-0.02 -0.105,-0.014 -0.19,-0.033 -0.253,-0.06 -0.063,-0.027 -0.105,-0.058 -0.129,-0.095 -0.023,-0.036 -0.034,-0.081 -0.034,-0.134 v -8.924 c 0,-0.053 0.01,-0.098 0.029,-0.134 0.02,-0.037 0.06,-0.07 0.119,-0.099 0.06,-0.03 0.135,-0.05 0.228,-0.06 0.093,-0.01 0.215,-0.015 0.367,-0.015 0.146,0 0.266,0.005 0.362,0.015 0.096,0.01 0.17,0.03 0.223,0.06 0.053,0.029 0.091,0.063 0.114,0.099 0.022,0.036 0.034,0.081 0.034,0.134 v 1.18 c 0.503,-0.562 1.003,-0.973 1.503,-1.234 0.499,-0.261 1.003,-0.392 1.512,-0.392 0.595,0 1.096,0.101 1.502,0.302 0.407,0.202 0.735,0.471 0.987,0.808 0.251,0.337 0.431,0.732 0.54,1.185 0.109,0.453 0.164,0.997 0.164,1.631 v 5.444 z"
   id="path315" />
	<path
   d="m 246.328,346.224 c 0,0.125 -0.007,0.227 -0.02,0.302 -0.014,0.076 -0.028,0.138 -0.045,0.184 -0.017,0.046 -0.038,0.078 -0.064,0.094 -0.026,0.016 -0.06,0.025 -0.099,0.025 -0.047,0 -0.104,-0.015 -0.174,-0.045 -0.069,-0.029 -0.153,-0.063 -0.253,-0.099 -0.099,-0.036 -0.217,-0.069 -0.352,-0.099 -0.136,-0.03 -0.293,-0.044 -0.472,-0.044 -0.244,0 -0.452,0.04 -0.624,0.119 -0.172,0.079 -0.312,0.203 -0.417,0.372 -0.105,0.169 -0.182,0.387 -0.228,0.654 -0.047,0.268 -0.069,0.594 -0.069,0.977 v 0.972 h 1.992 c 0.054,0 0.098,0.012 0.135,0.035 0.036,0.023 0.069,0.063 0.099,0.119 0.03,0.056 0.053,0.127 0.069,0.213 0.016,0.086 0.025,0.192 0.025,0.317 0,0.238 -0.03,0.41 -0.09,0.516 -0.06,0.106 -0.139,0.159 -0.238,0.159 h -1.992 v 7.823 c 0,0.053 -0.014,0.098 -0.04,0.134 -0.026,0.037 -0.071,0.068 -0.134,0.095 -0.063,0.027 -0.147,0.046 -0.253,0.06 -0.105,0.013 -0.238,0.02 -0.396,0.02 -0.159,0 -0.291,-0.007 -0.396,-0.02 -0.106,-0.014 -0.19,-0.033 -0.253,-0.06 -0.063,-0.026 -0.107,-0.058 -0.134,-0.095 -0.026,-0.036 -0.04,-0.081 -0.04,-0.134 v -7.823 h -1.259 c -0.106,0 -0.186,-0.053 -0.238,-0.159 -0.053,-0.105 -0.079,-0.278 -0.079,-0.516 0,-0.125 0.006,-0.231 0.02,-0.317 0.013,-0.086 0.033,-0.157 0.06,-0.213 0.027,-0.056 0.06,-0.096 0.099,-0.119 0.04,-0.023 0.086,-0.035 0.14,-0.035 h 1.259 v -0.922 c 0,-0.621 0.058,-1.155 0.174,-1.601 0.115,-0.446 0.292,-0.812 0.53,-1.096 0.238,-0.284 0.537,-0.494 0.897,-0.63 0.36,-0.135 0.785,-0.203 1.274,-0.203 0.231,0 0.456,0.021 0.674,0.064 0.218,0.043 0.387,0.089 0.506,0.139 0.119,0.05 0.198,0.094 0.238,0.134 0.039,0.04 0.072,0.091 0.099,0.154 0.026,0.063 0.045,0.139 0.055,0.228 0.01,0.089 0.014,0.195 0.014,0.321 z"
   id="path317" />
	<path
   d="m 255.51,354.255 c 0,0.727 -0.096,1.396 -0.287,2.008 -0.192,0.611 -0.478,1.139 -0.858,1.581 -0.38,0.443 -0.855,0.788 -1.428,1.036 -0.571,0.248 -1.234,0.372 -1.988,0.372 -0.733,0 -1.373,-0.109 -1.918,-0.327 -0.546,-0.219 -1,-0.535 -1.363,-0.952 -0.364,-0.416 -0.635,-0.922 -0.813,-1.517 -0.179,-0.596 -0.268,-1.27 -0.268,-2.023 0,-0.728 0.094,-1.396 0.282,-2.008 0.188,-0.611 0.473,-1.139 0.853,-1.582 0.381,-0.443 0.854,-0.787 1.423,-1.031 0.569,-0.244 1.233,-0.367 1.993,-0.367 0.734,0 1.374,0.109 1.919,0.327 0.546,0.218 1,0.536 1.363,0.952 0.363,0.416 0.637,0.922 0.818,1.517 0.181,0.596 0.272,1.267 0.272,2.014 z m -1.696,0.109 c 0,-0.482 -0.045,-0.938 -0.136,-1.368 -0.09,-0.43 -0.238,-0.807 -0.444,-1.13 -0.207,-0.324 -0.487,-0.58 -0.841,-0.769 -0.354,-0.189 -0.794,-0.283 -1.32,-0.283 -0.487,0 -0.906,0.086 -1.256,0.258 -0.351,0.172 -0.639,0.415 -0.866,0.729 -0.227,0.314 -0.395,0.686 -0.505,1.116 -0.11,0.43 -0.165,0.899 -0.165,1.408 0,0.489 0.045,0.949 0.135,1.378 0.091,0.43 0.24,0.805 0.45,1.125 0.211,0.321 0.492,0.575 0.846,0.764 0.354,0.189 0.794,0.283 1.321,0.283 0.479,0 0.896,-0.086 1.25,-0.258 0.354,-0.172 0.644,-0.413 0.87,-0.725 0.228,-0.311 0.394,-0.681 0.501,-1.11 0.107,-0.429 0.16,-0.902 0.16,-1.418 z"
   id="path319" />
	<path
   d="m 263.135,350.478 c 0,0.146 -0.003,0.268 -0.01,0.367 -0.007,0.099 -0.02,0.177 -0.039,0.233 -0.021,0.056 -0.045,0.099 -0.075,0.129 -0.029,0.029 -0.07,0.044 -0.124,0.044 -0.053,0 -0.117,-0.015 -0.193,-0.044 -0.075,-0.03 -0.161,-0.06 -0.258,-0.089 -0.096,-0.03 -0.203,-0.058 -0.322,-0.084 -0.118,-0.026 -0.247,-0.04 -0.387,-0.04 -0.165,0 -0.327,0.033 -0.485,0.099 -0.158,0.066 -0.326,0.175 -0.501,0.327 -0.175,0.152 -0.358,0.354 -0.55,0.605 -0.192,0.251 -0.403,0.559 -0.635,0.922 v 5.87 c 0,0.053 -0.014,0.098 -0.04,0.134 -0.026,0.037 -0.069,0.068 -0.129,0.095 -0.06,0.027 -0.142,0.046 -0.248,0.06 -0.105,0.013 -0.241,0.02 -0.406,0.02 -0.158,0 -0.291,-0.007 -0.396,-0.02 -0.105,-0.014 -0.19,-0.033 -0.253,-0.06 -0.063,-0.027 -0.105,-0.058 -0.129,-0.095 -0.023,-0.036 -0.034,-0.081 -0.034,-0.134 v -8.924 c 0,-0.053 0.01,-0.098 0.029,-0.134 0.02,-0.037 0.06,-0.07 0.119,-0.099 0.06,-0.03 0.135,-0.05 0.228,-0.06 0.093,-0.01 0.215,-0.015 0.367,-0.015 0.146,0 0.266,0.005 0.362,0.015 0.096,0.01 0.17,0.03 0.223,0.06 0.053,0.029 0.091,0.063 0.114,0.099 0.022,0.036 0.034,0.081 0.034,0.134 v 1.299 c 0.245,-0.357 0.475,-0.648 0.689,-0.873 0.214,-0.225 0.418,-0.401 0.61,-0.53 0.191,-0.129 0.381,-0.218 0.569,-0.268 0.188,-0.049 0.379,-0.074 0.57,-0.074 0.086,0 0.184,0.005 0.293,0.015 0.108,0.01 0.223,0.028 0.342,0.055 0.119,0.027 0.227,0.056 0.322,0.089 0.095,0.033 0.164,0.066 0.203,0.099 0.04,0.033 0.066,0.064 0.079,0.094 0.014,0.03 0.025,0.068 0.035,0.114 0.01,0.046 0.017,0.114 0.02,0.204 0.005,0.088 0.006,0.209 0.006,0.361 z"
   id="path321" />
	<path
   d="m 278.237,358.816 c 0,0.053 -0.014,0.098 -0.04,0.134 -0.026,0.037 -0.069,0.068 -0.129,0.095 -0.06,0.027 -0.143,0.046 -0.248,0.06 -0.105,0.013 -0.238,0.02 -0.396,0.02 -0.165,0 -0.301,-0.007 -0.406,-0.02 -0.106,-0.014 -0.19,-0.033 -0.253,-0.06 -0.063,-0.026 -0.107,-0.058 -0.134,-0.095 -0.026,-0.036 -0.04,-0.081 -0.04,-0.134 v -5.424 c 0,-0.376 -0.033,-0.72 -0.099,-1.031 -0.066,-0.311 -0.173,-0.578 -0.317,-0.803 -0.146,-0.225 -0.331,-0.396 -0.556,-0.516 -0.225,-0.119 -0.489,-0.178 -0.793,-0.178 -0.377,0 -0.756,0.146 -1.136,0.436 -0.38,0.291 -0.798,0.718 -1.254,1.279 v 6.237 c 0,0.053 -0.014,0.098 -0.04,0.134 -0.026,0.037 -0.071,0.068 -0.134,0.095 -0.063,0.027 -0.147,0.046 -0.253,0.06 -0.105,0.013 -0.238,0.02 -0.396,0.02 -0.152,0 -0.282,-0.007 -0.392,-0.02 -0.109,-0.014 -0.195,-0.033 -0.258,-0.06 -0.063,-0.026 -0.105,-0.058 -0.129,-0.095 -0.023,-0.036 -0.035,-0.081 -0.035,-0.134 v -5.424 c 0,-0.376 -0.036,-0.72 -0.108,-1.031 -0.073,-0.311 -0.183,-0.578 -0.327,-0.803 -0.146,-0.225 -0.329,-0.396 -0.551,-0.516 -0.222,-0.119 -0.484,-0.178 -0.788,-0.178 -0.377,0 -0.757,0.146 -1.141,0.436 -0.383,0.291 -0.8,0.718 -1.249,1.279 v 6.237 c 0,0.053 -0.014,0.098 -0.04,0.134 -0.026,0.037 -0.069,0.068 -0.129,0.095 -0.06,0.027 -0.142,0.046 -0.248,0.06 -0.105,0.013 -0.241,0.02 -0.406,0.02 -0.158,0 -0.291,-0.007 -0.396,-0.02 -0.105,-0.014 -0.19,-0.033 -0.253,-0.06 -0.063,-0.027 -0.105,-0.058 -0.129,-0.095 -0.023,-0.036 -0.034,-0.081 -0.034,-0.134 v -8.924 c 0,-0.053 0.01,-0.098 0.029,-0.134 0.02,-0.037 0.06,-0.07 0.119,-0.099 0.06,-0.03 0.135,-0.05 0.228,-0.06 0.093,-0.01 0.215,-0.015 0.367,-0.015 0.146,0 0.266,0.005 0.362,0.015 0.096,0.01 0.17,0.03 0.223,0.06 0.053,0.029 0.091,0.063 0.114,0.099 0.022,0.036 0.034,0.081 0.034,0.134 v 1.18 c 0.503,-0.562 0.99,-0.973 1.463,-1.234 0.473,-0.261 0.95,-0.392 1.433,-0.392 0.37,0 0.702,0.043 0.997,0.129 0.294,0.086 0.554,0.207 0.778,0.362 0.224,0.155 0.416,0.341 0.575,0.555 0.158,0.215 0.29,0.455 0.396,0.719 0.297,-0.324 0.58,-0.598 0.848,-0.823 0.268,-0.225 0.525,-0.406 0.773,-0.545 0.248,-0.139 0.489,-0.239 0.724,-0.302 0.235,-0.063 0.471,-0.094 0.709,-0.094 0.575,0 1.058,0.101 1.448,0.302 0.39,0.202 0.705,0.471 0.946,0.808 0.241,0.337 0.413,0.732 0.516,1.185 0.103,0.453 0.154,0.931 0.154,1.433 v 5.641 z"
   id="path323" />
	<path
   d="m 287.944,358.826 c 0,0.08 -0.026,0.139 -0.08,0.179 -0.053,0.04 -0.125,0.069 -0.218,0.089 -0.093,0.021 -0.228,0.03 -0.406,0.03 -0.172,0 -0.31,-0.01 -0.412,-0.03 -0.103,-0.02 -0.177,-0.049 -0.223,-0.089 -0.047,-0.04 -0.069,-0.099 -0.069,-0.179 v -0.893 c -0.391,0.417 -0.825,0.741 -1.304,0.973 -0.479,0.23 -0.987,0.347 -1.522,0.347 -0.47,0 -0.895,-0.062 -1.274,-0.184 -0.379,-0.122 -0.704,-0.299 -0.972,-0.53 -0.268,-0.231 -0.476,-0.516 -0.624,-0.853 -0.149,-0.338 -0.224,-0.721 -0.224,-1.15 0,-0.503 0.103,-0.939 0.308,-1.309 0.205,-0.37 0.499,-0.677 0.883,-0.922 0.383,-0.245 0.853,-0.428 1.407,-0.551 0.556,-0.122 1.181,-0.183 1.874,-0.183 h 1.229 v -0.694 c 0,-0.343 -0.036,-0.647 -0.108,-0.912 -0.073,-0.264 -0.19,-0.484 -0.353,-0.659 -0.162,-0.175 -0.371,-0.308 -0.629,-0.397 -0.258,-0.089 -0.575,-0.134 -0.952,-0.134 -0.403,0 -0.766,0.048 -1.086,0.144 -0.32,0.096 -0.602,0.202 -0.843,0.317 -0.241,0.116 -0.443,0.222 -0.604,0.317 -0.162,0.096 -0.283,0.144 -0.362,0.144 -0.053,0 -0.1,-0.013 -0.139,-0.04 -0.04,-0.026 -0.074,-0.066 -0.104,-0.119 -0.029,-0.053 -0.051,-0.121 -0.064,-0.204 -0.013,-0.083 -0.02,-0.173 -0.02,-0.272 0,-0.165 0.012,-0.296 0.034,-0.392 0.023,-0.096 0.08,-0.187 0.169,-0.273 0.089,-0.085 0.243,-0.187 0.461,-0.302 0.219,-0.116 0.47,-0.221 0.754,-0.317 0.284,-0.096 0.595,-0.175 0.932,-0.238 0.338,-0.063 0.678,-0.094 1.021,-0.094 0.642,0 1.187,0.073 1.636,0.218 0.45,0.146 0.813,0.358 1.091,0.64 0.278,0.281 0.479,0.629 0.605,1.046 0.125,0.417 0.188,0.902 0.188,1.458 z m -1.627,-4.075 h -1.397 c -0.45,0 -0.84,0.038 -1.17,0.114 -0.331,0.076 -0.605,0.188 -0.823,0.337 -0.218,0.149 -0.379,0.327 -0.481,0.536 -0.102,0.209 -0.153,0.448 -0.153,0.719 0,0.462 0.147,0.831 0.441,1.105 0.294,0.274 0.705,0.411 1.234,0.411 0.43,0 0.828,-0.109 1.195,-0.327 0.366,-0.218 0.752,-0.552 1.154,-1.001 z"
   id="path325" />
	<path
   d="m 298.524,349.635 c 0.198,0 0.334,0.044 0.406,0.134 0.072,0.09 0.109,0.22 0.109,0.392 v 8.656 c 0,0.053 -0.014,0.098 -0.04,0.134 -0.026,0.037 -0.071,0.068 -0.134,0.095 -0.063,0.027 -0.147,0.046 -0.253,0.06 -0.105,0.013 -0.234,0.02 -0.387,0.02 -0.165,0 -0.301,-0.007 -0.406,-0.02 -0.105,-0.014 -0.19,-0.033 -0.253,-0.06 -0.063,-0.027 -0.107,-0.058 -0.134,-0.095 -0.026,-0.036 -0.04,-0.081 -0.04,-0.134 v -7.823 h -4.61 v 4.978 c 0,0.615 0.091,1.079 0.272,1.394 0.182,0.313 0.507,0.471 0.977,0.471 0.152,0 0.288,-0.015 0.406,-0.045 0.119,-0.029 0.226,-0.061 0.317,-0.094 0.093,-0.033 0.172,-0.064 0.238,-0.095 0.066,-0.029 0.126,-0.044 0.179,-0.044 0.033,0 0.064,0.008 0.094,0.024 0.03,0.017 0.053,0.048 0.069,0.094 0.017,0.047 0.031,0.109 0.045,0.188 0.014,0.08 0.02,0.179 0.02,0.298 0,0.191 -0.013,0.342 -0.039,0.451 -0.026,0.109 -0.066,0.191 -0.119,0.248 -0.053,0.056 -0.133,0.107 -0.238,0.153 -0.105,0.047 -0.227,0.085 -0.361,0.114 -0.136,0.029 -0.279,0.055 -0.432,0.074 -0.153,0.019 -0.304,0.03 -0.456,0.03 -0.463,0 -0.859,-0.062 -1.19,-0.184 -0.33,-0.122 -0.602,-0.308 -0.813,-0.556 -0.212,-0.248 -0.365,-0.562 -0.461,-0.941 -0.096,-0.381 -0.145,-0.828 -0.145,-1.344 v -5.216 h -1.249 c -0.099,0 -0.179,-0.053 -0.238,-0.159 -0.059,-0.105 -0.089,-0.278 -0.089,-0.516 0,-0.125 0.008,-0.231 0.024,-0.317 0.016,-0.086 0.038,-0.157 0.064,-0.213 0.026,-0.056 0.062,-0.096 0.104,-0.119 0.042,-0.023 0.091,-0.035 0.144,-0.035 h 1.239 v -2.122 c 0,-0.046 0.012,-0.089 0.035,-0.129 0.023,-0.04 0.066,-0.074 0.129,-0.104 0.063,-0.03 0.147,-0.051 0.253,-0.064 0.106,-0.013 0.238,-0.02 0.396,-0.02 0.165,0 0.301,0.007 0.406,0.02 0.106,0.013 0.188,0.035 0.248,0.064 0.06,0.029 0.103,0.064 0.129,0.104 0.026,0.04 0.04,0.083 0.04,0.129 v 2.122 h 5.744 z m 0.705,-2.757 c 0,0.384 -0.073,0.645 -0.219,0.784 -0.146,0.139 -0.413,0.208 -0.803,0.208 -0.384,0 -0.646,-0.068 -0.788,-0.203 -0.143,-0.136 -0.214,-0.392 -0.214,-0.769 0,-0.383 0.073,-0.645 0.219,-0.783 0.146,-0.139 0.413,-0.208 0.803,-0.208 0.384,0 0.646,0.068 0.788,0.204 0.142,0.134 0.214,0.39 0.214,0.767 z"
   id="path327" />
	<path
   d="m 309.719,362.356 c 0,0.053 -0.015,0.1 -0.045,0.139 -0.029,0.04 -0.074,0.073 -0.134,0.1 -0.06,0.027 -0.142,0.046 -0.248,0.06 -0.105,0.013 -0.237,0.02 -0.396,0.02 -0.165,0 -0.299,-0.007 -0.401,-0.02 -0.103,-0.014 -0.187,-0.033 -0.253,-0.06 -0.066,-0.027 -0.11,-0.06 -0.134,-0.1 -0.023,-0.039 -0.035,-0.086 -0.035,-0.139 v -4.571 c -0.271,0.271 -0.528,0.501 -0.773,0.689 -0.244,0.188 -0.485,0.341 -0.724,0.456 -0.237,0.115 -0.478,0.198 -0.719,0.248 -0.241,0.05 -0.49,0.074 -0.748,0.074 -0.648,0 -1.2,-0.127 -1.656,-0.382 -0.456,-0.254 -0.828,-0.599 -1.115,-1.031 -0.288,-0.433 -0.498,-0.942 -0.63,-1.527 -0.133,-0.584 -0.198,-1.201 -0.198,-1.849 0,-0.767 0.082,-1.459 0.248,-2.077 0.165,-0.618 0.411,-1.145 0.738,-1.582 0.327,-0.436 0.73,-0.771 1.21,-1.006 0.479,-0.235 1.032,-0.352 1.661,-0.352 0.264,0 0.512,0.028 0.743,0.084 0.231,0.056 0.461,0.146 0.689,0.268 0.228,0.123 0.459,0.281 0.693,0.476 0.235,0.195 0.491,0.428 0.769,0.699 v -1.081 c 0,-0.06 0.014,-0.107 0.04,-0.144 0.026,-0.036 0.069,-0.067 0.129,-0.094 0.06,-0.026 0.136,-0.044 0.229,-0.054 0.092,-0.01 0.208,-0.015 0.347,-0.015 0.132,0 0.244,0.005 0.337,0.015 0.093,0.01 0.167,0.028 0.224,0.054 0.056,0.027 0.096,0.058 0.118,0.094 0.023,0.037 0.035,0.084 0.035,0.144 v 12.464 z m -1.647,-9.816 c -0.442,-0.549 -0.87,-0.967 -1.283,-1.254 -0.414,-0.288 -0.845,-0.431 -1.294,-0.431 -0.417,0 -0.771,0.099 -1.062,0.297 -0.291,0.198 -0.527,0.459 -0.709,0.783 -0.182,0.324 -0.314,0.691 -0.396,1.101 -0.083,0.41 -0.124,0.827 -0.124,1.25 0,0.456 0.035,0.899 0.104,1.329 0.069,0.43 0.189,0.81 0.361,1.14 0.172,0.331 0.4,0.597 0.685,0.799 0.284,0.201 0.641,0.302 1.07,0.302 0.219,0 0.429,-0.029 0.63,-0.089 0.202,-0.06 0.408,-0.159 0.62,-0.298 0.211,-0.139 0.433,-0.318 0.664,-0.54 0.231,-0.222 0.476,-0.494 0.733,-0.818 v -3.571 z"
   id="path329" />
	<path
   d="m 320.388,358.816 c 0,0.053 -0.012,0.098 -0.035,0.134 -0.022,0.037 -0.064,0.068 -0.124,0.095 -0.059,0.026 -0.137,0.046 -0.232,0.06 -0.096,0.013 -0.213,0.02 -0.353,0.02 -0.151,0 -0.275,-0.007 -0.371,-0.02 -0.097,-0.014 -0.172,-0.033 -0.229,-0.06 -0.056,-0.026 -0.094,-0.058 -0.114,-0.095 -0.02,-0.036 -0.029,-0.081 -0.029,-0.134 v -1.18 c -0.509,0.562 -1.012,0.972 -1.507,1.229 -0.496,0.258 -0.999,0.387 -1.508,0.387 -0.595,0 -1.096,-0.1 -1.502,-0.298 -0.406,-0.198 -0.735,-0.467 -0.986,-0.808 -0.252,-0.341 -0.432,-0.737 -0.541,-1.19 -0.108,-0.452 -0.163,-1.003 -0.163,-1.65 v -5.414 c 0,-0.053 0.011,-0.098 0.034,-0.134 0.023,-0.037 0.068,-0.07 0.134,-0.099 0.066,-0.03 0.152,-0.05 0.258,-0.06 0.106,-0.01 0.238,-0.015 0.396,-0.015 0.159,0 0.291,0.005 0.397,0.015 0.105,0.01 0.189,0.03 0.253,0.06 0.063,0.029 0.106,0.063 0.134,0.099 0.026,0.036 0.039,0.081 0.039,0.134 v 5.196 c 0,0.522 0.038,0.94 0.114,1.254 0.076,0.313 0.191,0.582 0.347,0.803 0.155,0.222 0.353,0.394 0.591,0.516 0.237,0.123 0.516,0.184 0.832,0.184 0.41,0 0.818,-0.146 1.225,-0.437 0.407,-0.29 0.838,-0.717 1.294,-1.278 v -6.237 c 0,-0.053 0.012,-0.098 0.035,-0.134 0.023,-0.037 0.067,-0.07 0.134,-0.099 0.066,-0.03 0.15,-0.05 0.253,-0.06 0.103,-0.01 0.236,-0.015 0.401,-0.015 0.159,0 0.291,0.005 0.396,0.015 0.106,0.01 0.188,0.03 0.248,0.06 0.06,0.029 0.104,0.063 0.134,0.099 0.03,0.036 0.045,0.081 0.045,0.134 z"
   id="path331" />
	<path
   d="m 331.027,353.968 c 0,0.258 -0.064,0.441 -0.193,0.55 -0.13,0.109 -0.277,0.164 -0.443,0.164 h -5.877 c 0,0.496 0.049,0.942 0.148,1.339 0.101,0.396 0.267,0.737 0.499,1.021 0.232,0.284 0.534,0.502 0.906,0.654 0.372,0.152 0.827,0.228 1.365,0.228 0.425,0 0.804,-0.034 1.136,-0.104 0.332,-0.07 0.619,-0.147 0.862,-0.233 0.242,-0.086 0.441,-0.163 0.598,-0.233 0.156,-0.069 0.274,-0.104 0.354,-0.104 0.047,0 0.088,0.012 0.125,0.034 0.036,0.023 0.064,0.059 0.084,0.104 0.021,0.046 0.035,0.11 0.045,0.193 0.01,0.083 0.016,0.184 0.016,0.303 0,0.086 -0.004,0.16 -0.011,0.223 -0.006,0.063 -0.015,0.119 -0.024,0.169 -0.009,0.05 -0.026,0.094 -0.05,0.134 -0.022,0.039 -0.053,0.078 -0.089,0.114 -0.036,0.036 -0.144,0.096 -0.322,0.178 -0.179,0.083 -0.41,0.164 -0.694,0.243 -0.284,0.079 -0.613,0.15 -0.986,0.213 -0.374,0.063 -0.771,0.095 -1.195,0.095 -0.733,0 -1.376,-0.103 -1.928,-0.308 -0.553,-0.205 -1.017,-0.509 -1.394,-0.912 -0.377,-0.403 -0.661,-0.909 -0.853,-1.517 -0.192,-0.608 -0.288,-1.316 -0.288,-2.123 0,-0.767 0.1,-1.456 0.298,-2.067 0.198,-0.611 0.484,-1.13 0.857,-1.557 0.374,-0.426 0.825,-0.753 1.354,-0.981 0.529,-0.228 1.121,-0.342 1.775,-0.342 0.7,0 1.297,0.112 1.789,0.337 0.493,0.225 0.897,0.527 1.215,0.908 0.317,0.38 0.551,0.826 0.699,1.338 0.148,0.512 0.223,1.06 0.223,1.641 v 0.298 z m -1.645,-0.486 c 0.02,-0.859 -0.172,-1.534 -0.573,-2.023 -0.403,-0.489 -1,-0.733 -1.791,-0.733 -0.406,0 -0.762,0.076 -1.067,0.228 -0.307,0.152 -0.563,0.354 -0.769,0.604 -0.206,0.251 -0.366,0.544 -0.479,0.878 -0.113,0.333 -0.177,0.683 -0.189,1.046 z"
   id="path333" />
	<path
   d="m 339.743,358.816 c 0,0.053 -0.014,0.098 -0.04,0.134 -0.026,0.037 -0.069,0.068 -0.129,0.095 -0.06,0.027 -0.142,0.046 -0.248,0.06 -0.105,0.013 -0.241,0.02 -0.406,0.02 -0.158,0 -0.291,-0.007 -0.396,-0.02 -0.105,-0.014 -0.19,-0.033 -0.253,-0.06 -0.063,-0.027 -0.105,-0.058 -0.129,-0.095 -0.023,-0.036 -0.034,-0.081 -0.034,-0.134 v -13.247 c 0,-0.053 0.011,-0.099 0.034,-0.139 0.023,-0.04 0.066,-0.073 0.129,-0.1 0.063,-0.026 0.147,-0.046 0.253,-0.059 0.106,-0.013 0.238,-0.02 0.396,-0.02 0.165,0 0.301,0.007 0.406,0.02 0.106,0.013 0.188,0.033 0.248,0.059 0.06,0.027 0.103,0.06 0.129,0.1 0.026,0.04 0.04,0.086 0.04,0.139 z"
   id="path335" />
	<path
   d="m 344.592,346.878 c 0,0.384 -0.073,0.645 -0.219,0.784 -0.146,0.139 -0.413,0.208 -0.803,0.208 -0.384,0 -0.646,-0.068 -0.788,-0.203 -0.143,-0.136 -0.214,-0.392 -0.214,-0.769 0,-0.383 0.073,-0.645 0.219,-0.783 0.146,-0.139 0.413,-0.208 0.803,-0.208 0.384,0 0.646,0.068 0.788,0.204 0.143,0.134 0.214,0.39 0.214,0.767 z m -0.189,11.938 c 0,0.053 -0.014,0.098 -0.04,0.134 -0.026,0.037 -0.069,0.068 -0.129,0.095 -0.06,0.027 -0.142,0.046 -0.248,0.06 -0.105,0.013 -0.241,0.02 -0.406,0.02 -0.158,0 -0.291,-0.007 -0.396,-0.02 -0.105,-0.014 -0.19,-0.033 -0.253,-0.06 -0.063,-0.027 -0.105,-0.058 -0.129,-0.095 -0.023,-0.036 -0.034,-0.081 -0.034,-0.134 v -8.924 c 0,-0.046 0.011,-0.089 0.034,-0.129 0.023,-0.04 0.066,-0.073 0.129,-0.099 0.063,-0.026 0.147,-0.046 0.253,-0.06 0.106,-0.014 0.238,-0.02 0.396,-0.02 0.165,0 0.301,0.007 0.406,0.02 0.106,0.013 0.188,0.033 0.248,0.06 0.06,0.027 0.103,0.06 0.129,0.099 0.026,0.039 0.04,0.083 0.04,0.129 z"
   id="path337" />
	<path
   d="m 355.639,354.235 c 0,0.773 -0.085,1.469 -0.253,2.088 -0.169,0.618 -0.417,1.145 -0.744,1.581 -0.327,0.436 -0.729,0.771 -1.204,1.002 -0.477,0.23 -1.021,0.347 -1.637,0.347 -0.284,0 -0.547,-0.028 -0.788,-0.084 -0.241,-0.057 -0.478,-0.147 -0.709,-0.273 -0.231,-0.125 -0.463,-0.284 -0.694,-0.476 -0.231,-0.192 -0.476,-0.423 -0.733,-0.694 v 1.091 c 0,0.053 -0.014,0.1 -0.04,0.139 -0.026,0.04 -0.069,0.071 -0.129,0.095 -0.06,0.022 -0.134,0.041 -0.223,0.055 -0.09,0.013 -0.203,0.02 -0.342,0.02 -0.133,0 -0.245,-0.007 -0.338,-0.02 -0.093,-0.014 -0.168,-0.032 -0.228,-0.055 -0.06,-0.023 -0.1,-0.055 -0.119,-0.095 -0.02,-0.039 -0.029,-0.086 -0.029,-0.139 V 345.57 c 0,-0.053 0.011,-0.099 0.034,-0.139 0.023,-0.04 0.066,-0.073 0.129,-0.1 0.063,-0.026 0.147,-0.046 0.253,-0.059 0.106,-0.013 0.238,-0.02 0.396,-0.02 0.165,0 0.301,0.007 0.406,0.02 0.106,0.013 0.188,0.033 0.248,0.059 0.06,0.027 0.103,0.06 0.129,0.1 0.026,0.04 0.04,0.086 0.04,0.139 v 5.344 c 0.265,-0.271 0.521,-0.499 0.769,-0.684 0.248,-0.185 0.49,-0.335 0.729,-0.451 0.238,-0.115 0.476,-0.2 0.714,-0.253 0.238,-0.053 0.489,-0.079 0.754,-0.079 0.647,0 1.201,0.129 1.661,0.387 0.459,0.258 0.832,0.604 1.12,1.036 0.287,0.433 0.497,0.94 0.63,1.522 0.131,0.581 0.198,1.196 0.198,1.843 z m -1.697,0.189 c 0,-0.456 -0.034,-0.899 -0.104,-1.329 -0.069,-0.43 -0.191,-0.81 -0.364,-1.14 -0.173,-0.33 -0.402,-0.597 -0.688,-0.798 -0.286,-0.201 -0.642,-0.302 -1.067,-0.302 -0.213,0 -0.422,0.03 -0.628,0.089 -0.206,0.06 -0.416,0.159 -0.629,0.298 -0.213,0.139 -0.434,0.317 -0.663,0.535 -0.229,0.218 -0.475,0.493 -0.733,0.823 v 3.56 c 0.452,0.549 0.885,0.967 1.297,1.254 0.412,0.288 0.841,0.432 1.287,0.432 0.412,0 0.765,-0.099 1.058,-0.298 0.292,-0.198 0.53,-0.461 0.713,-0.788 0.183,-0.327 0.316,-0.693 0.399,-1.101 0.081,-0.407 0.122,-0.819 0.122,-1.235 z"
   id="path339" />
	<path
   d="m 363.313,350.478 c 0,0.146 -0.003,0.268 -0.01,0.367 -0.007,0.099 -0.02,0.177 -0.039,0.233 -0.021,0.056 -0.045,0.099 -0.075,0.129 -0.029,0.029 -0.07,0.044 -0.124,0.044 -0.053,0 -0.117,-0.015 -0.193,-0.044 -0.075,-0.03 -0.161,-0.06 -0.258,-0.089 -0.096,-0.03 -0.203,-0.058 -0.322,-0.084 -0.118,-0.026 -0.247,-0.04 -0.387,-0.04 -0.165,0 -0.327,0.033 -0.485,0.099 -0.158,0.066 -0.326,0.175 -0.501,0.327 -0.175,0.152 -0.358,0.354 -0.55,0.605 -0.192,0.251 -0.403,0.559 -0.635,0.922 v 5.87 c 0,0.053 -0.014,0.098 -0.04,0.134 -0.026,0.037 -0.069,0.068 -0.129,0.095 -0.06,0.027 -0.142,0.046 -0.248,0.06 -0.105,0.013 -0.241,0.02 -0.406,0.02 -0.158,0 -0.291,-0.007 -0.396,-0.02 -0.105,-0.014 -0.19,-0.033 -0.253,-0.06 -0.063,-0.027 -0.105,-0.058 -0.129,-0.095 -0.023,-0.036 -0.034,-0.081 -0.034,-0.134 v -8.924 c 0,-0.053 0.01,-0.098 0.029,-0.134 0.02,-0.037 0.06,-0.07 0.119,-0.099 0.06,-0.03 0.135,-0.05 0.228,-0.06 0.093,-0.01 0.215,-0.015 0.367,-0.015 0.146,0 0.266,0.005 0.362,0.015 0.096,0.01 0.17,0.03 0.223,0.06 0.053,0.029 0.091,0.063 0.114,0.099 0.022,0.036 0.034,0.081 0.034,0.134 v 1.299 c 0.245,-0.357 0.475,-0.648 0.689,-0.873 0.214,-0.225 0.418,-0.401 0.61,-0.53 0.191,-0.129 0.381,-0.218 0.569,-0.268 0.188,-0.049 0.379,-0.074 0.57,-0.074 0.086,0 0.184,0.005 0.293,0.015 0.108,0.01 0.223,0.028 0.342,0.055 0.119,0.027 0.227,0.056 0.322,0.089 0.095,0.033 0.164,0.066 0.203,0.099 0.04,0.033 0.066,0.064 0.079,0.094 0.014,0.03 0.025,0.068 0.035,0.114 0.01,0.046 0.017,0.114 0.02,0.204 0.005,0.088 0.006,0.209 0.006,0.361 z"
   id="path341" />
	<path
   d="m 372.523,353.968 c 0,0.258 -0.064,0.441 -0.193,0.55 -0.13,0.109 -0.277,0.164 -0.443,0.164 h -5.877 c 0,0.496 0.049,0.942 0.148,1.339 0.101,0.396 0.267,0.737 0.499,1.021 0.232,0.284 0.534,0.502 0.906,0.654 0.372,0.152 0.827,0.228 1.365,0.228 0.425,0 0.804,-0.034 1.136,-0.104 0.332,-0.07 0.619,-0.147 0.862,-0.233 0.242,-0.086 0.441,-0.163 0.598,-0.233 0.156,-0.069 0.274,-0.104 0.354,-0.104 0.047,0 0.088,0.012 0.125,0.034 0.036,0.023 0.064,0.059 0.084,0.104 0.021,0.046 0.035,0.11 0.045,0.193 0.01,0.083 0.016,0.184 0.016,0.303 0,0.086 -0.004,0.16 -0.011,0.223 -0.006,0.063 -0.015,0.119 -0.024,0.169 -0.009,0.05 -0.026,0.094 -0.05,0.134 -0.022,0.039 -0.053,0.078 -0.089,0.114 -0.036,0.036 -0.144,0.096 -0.322,0.178 -0.179,0.083 -0.41,0.164 -0.694,0.243 -0.284,0.079 -0.613,0.15 -0.986,0.213 -0.374,0.063 -0.771,0.095 -1.195,0.095 -0.733,0 -1.376,-0.103 -1.928,-0.308 -0.553,-0.205 -1.017,-0.509 -1.394,-0.912 -0.377,-0.403 -0.661,-0.909 -0.853,-1.517 -0.192,-0.608 -0.288,-1.316 -0.288,-2.123 0,-0.767 0.1,-1.456 0.298,-2.067 0.198,-0.611 0.484,-1.13 0.857,-1.557 0.374,-0.426 0.825,-0.753 1.354,-0.981 0.529,-0.228 1.121,-0.342 1.775,-0.342 0.7,0 1.297,0.112 1.789,0.337 0.493,0.225 0.897,0.527 1.215,0.908 0.317,0.38 0.551,0.826 0.699,1.338 0.148,0.512 0.223,1.06 0.223,1.641 v 0.298 z m -1.645,-0.486 c 0.02,-0.859 -0.172,-1.534 -0.573,-2.023 -0.403,-0.489 -1,-0.733 -1.791,-0.733 -0.406,0 -0.762,0.076 -1.067,0.228 -0.307,0.152 -0.563,0.354 -0.769,0.604 -0.206,0.251 -0.366,0.544 -0.479,0.878 -0.113,0.333 -0.177,0.683 -0.189,1.046 z"
   id="path343" />
</g>
<g
   id="g351"
   clip-path="url(#clipPath376)"
   transform="translate(-182.833,-200.746)">
	<path
   fill="#e42538"
   d="m 352.886,306.339 -6.459,-34.844 c 0,0 9.832,-15.174 21.918,0 l -5.063,34.844 z"
   id="path347" />
	<path
   fill="#e42538"
   d="m 365.56,252.341 c 0,4.913 -3.98,8.893 -8.891,8.893 -4.914,0 -8.893,-3.98 -8.893,-8.893 0,-4.91 3.979,-8.89 8.893,-8.89 4.91,0 8.891,3.98 8.891,8.89 z"
   id="path349" />
</g>
<path
   fill="#e42538"
   d="m 389.2,354.857 c 0,0 -27.287,42.523 -104.225,29.565 0,0 74.399,19.56 104.225,-29.565 z"
   id="path353"
   clip-path="url(#clipPath372)"
   transform="translate(-182.833,-200.746)" />
<g
   id="g357"
   clip-path="url(#clipPath368)"
   transform="translate(-182.833,-200.746)">
	<path
   fill="#e42538"
   d="m 182.833,231.146 c 0,0 59.168,-49.63 165.533,4.293 0,0 -99.658,-62.397 -165.533,-4.293 z"
   id="path355" />
</g>
</svg>
