<svg width="250" height="50" viewBox="0 0 250 50" fill="none" xmlns="http://www.w3.org/2000/svg">
<rect width="250" height="50" fill="#243742"/>
<path d="M11.3898 10.152H4.81375V6.12H23.1978V10.152H16.8138V45H11.3898V10.152ZM26.9459 6.12H42.0179V10.152H32.3699V23.016H40.1939V26.856H32.3699V41.112H42.1139V45H26.9459V6.12ZM56.2368 45.432C52.3968 45.432 49.6928 44.296 48.1248 42.024C46.5568 39.72 45.7728 36.552 45.7728 32.52V18.792C45.7728 14.536 46.5408 11.304 48.0768 9.096C49.6128 6.888 52.3328 5.784 56.2368 5.784C59.7248 5.784 62.2208 6.728 63.7248 8.616C65.2608 10.504 66.0288 13.288 66.0288 16.968V20.04H60.8928V17.304C60.8928 15.512 60.8128 14.136 60.6528 13.176C60.4928 12.216 60.0768 11.448 59.4048 10.872C58.7648 10.296 57.7248 10.008 56.2848 10.008C54.8128 10.008 53.7088 10.328 52.9728 10.968C52.2688 11.576 51.8048 12.44 51.5808 13.56C51.3568 14.648 51.2448 16.12 51.2448 17.976V33.384C51.2448 35.368 51.4048 36.92 51.7248 38.04C52.0448 39.16 52.5568 39.96 53.2608 40.44C53.9968 40.92 55.0048 41.16 56.2848 41.16C57.6608 41.16 58.6848 40.856 59.3568 40.248C60.0288 39.64 60.4448 38.808 60.6048 37.752C60.7968 36.696 60.8928 35.256 60.8928 33.432V30.552H66.0288V33.432C66.0288 37.304 65.2928 40.28 63.8208 42.36C62.3808 44.408 59.8528 45.432 56.2368 45.432ZM71.1959 6.12H76.6199V22.92H86.6039V6.12H92.0279V45H86.6039V26.808H76.6199V45H71.1959V6.12ZM98.1021 6.12H101.798L112.838 31.944V6.12H117.35V45H113.894L102.71 18.456V45H98.1021V6.12ZM133.398 45.432C129.59 45.432 126.854 44.36 125.19 42.216C123.558 40.04 122.742 36.904 122.742 32.808V18.072C122.742 14.04 123.574 10.984 125.238 8.904C126.902 6.824 129.622 5.784 133.398 5.784C137.174 5.784 139.878 6.84 141.51 8.952C143.174 11.032 144.006 14.072 144.006 18.072V32.856C144.006 36.888 143.174 39.992 141.51 42.168C139.846 44.344 137.142 45.432 133.398 45.432ZM133.398 41.16C135.414 41.16 136.774 40.568 137.478 39.384C138.182 38.2 138.534 36.408 138.534 34.008V16.968C138.534 14.6 138.182 12.856 137.478 11.736C136.774 10.584 135.414 10.008 133.398 10.008C131.35 10.008 129.974 10.584 129.27 11.736C128.566 12.856 128.214 14.6 128.214 16.968V34.008C128.214 36.408 128.566 38.2 129.27 39.384C129.974 40.568 131.35 41.16 133.398 41.16Z" fill="white"/>
<path d="M149.337 6.12H154.761V41.112H164.697V45H149.337V6.12ZM168.703 6.12H174.031V45H168.703V6.12ZM180.321 6.12H189.249C192.769 6.12 195.377 6.92 197.073 8.52C198.769 10.088 199.617 12.536 199.617 15.864C199.617 20.824 197.761 23.56 194.049 24.072C196.353 24.616 198.033 25.704 199.089 27.336C200.145 28.936 200.673 31.128 200.673 33.912C200.673 37.4 199.841 40.12 198.177 42.072C196.545 44.024 194.049 45 190.689 45H180.321V6.12ZM188.961 22.344C191.201 22.344 192.753 21.864 193.617 20.904C194.481 19.912 194.913 18.232 194.913 15.864C194.913 14.136 194.641 12.872 194.097 12.072C193.585 11.24 192.801 10.712 191.745 10.488C190.689 10.264 189.121 10.152 187.041 10.152H185.745V22.344H188.961ZM189.393 41.112C190.993 41.112 192.225 40.872 193.089 40.392C193.985 39.88 194.609 39.112 194.961 38.088C195.313 37.064 195.489 35.672 195.489 33.912C195.489 31.416 194.977 29.56 193.953 28.344C192.929 27.096 191.265 26.472 188.961 26.472H185.745V41.112H189.393ZM205.493 6.12H213.317C217.253 6.12 220.133 6.936 221.957 8.568C223.813 10.168 224.741 12.792 224.741 16.44C224.741 21.432 223.141 24.456 219.941 25.512L225.461 45H220.229L215.141 26.76H210.917V45H205.493V6.12ZM212.981 22.872C215.317 22.872 216.981 22.408 217.973 21.48C218.997 20.552 219.509 18.872 219.509 16.44C219.509 14.84 219.333 13.592 218.981 12.696C218.629 11.768 218.005 11.096 217.109 10.68C216.213 10.232 214.949 10.008 213.317 10.008H210.917V22.872H212.981ZM230.383 6.12H245.455V10.152H235.807V23.016H243.631V26.856H235.807V41.112H245.551V45H230.383V6.12Z" fill="#FFD166"/>
</svg>
